<svg width="400" height="354" viewBox="0 0 200 177" fill="none" xmlns="http://www.w3.org/2000/svg">
<rect width="82" height="177" fill="#C5C9C5"/>
<rect x="5" y="7" width="72" height="28" fill="#DCD6D6"/>
<path d="M14.767 27.0455V19.5455H15.5767V20.4119H15.6761C15.7377 20.3172 15.8229 20.1965 15.9318 20.0497C16.0431 19.9006 16.2017 19.768 16.4077 19.652C16.616 19.5336 16.8977 19.4744 17.2528 19.4744C17.7121 19.4744 18.117 19.5893 18.4673 19.8189C18.8177 20.0485 19.0911 20.3741 19.2876 20.7955C19.4841 21.2169 19.5824 21.714 19.5824 22.2869C19.5824 22.8646 19.4841 23.3653 19.2876 23.7891C19.0911 24.2105 18.8189 24.5372 18.4709 24.7692C18.1229 24.9988 17.7216 25.1136 17.267 25.1136C16.9167 25.1136 16.6361 25.0556 16.4254 24.9396C16.2147 24.8213 16.0526 24.6875 15.9389 24.5384C15.8253 24.3868 15.7377 24.2614 15.6761 24.1619H15.6051V27.0455H14.767ZM15.5909 22.2727C15.5909 22.6847 15.6513 23.0481 15.772 23.3629C15.8928 23.6754 16.0691 23.9205 16.3011 24.098C16.5331 24.2732 16.8172 24.3608 17.1534 24.3608C17.5038 24.3608 17.7962 24.2685 18.0305 24.0838C18.2673 23.8968 18.4448 23.6458 18.5632 23.331C18.6839 23.0137 18.7443 22.661 18.7443 22.2727C18.7443 21.8892 18.6851 21.5436 18.5668 21.2358C18.4508 20.9257 18.2744 20.6806 18.0376 20.5007C17.8033 20.3184 17.5085 20.2273 17.1534 20.2273C16.8125 20.2273 16.526 20.3137 16.294 20.4865C16.062 20.657 15.8868 20.8961 15.7685 21.2038C15.6501 21.5092 15.5909 21.8655 15.5909 22.2727ZM20.8608 25V19.5455H21.6989V25H20.8608ZM21.2869 18.6364C21.1236 18.6364 20.9827 18.5807 20.8643 18.4695C20.7483 18.3582 20.6903 18.2244 20.6903 18.0682C20.6903 17.9119 20.7483 17.7782 20.8643 17.6669C20.9827 17.5556 21.1236 17.5 21.2869 17.5C21.4503 17.5 21.59 17.5556 21.706 17.6669C21.8243 17.7782 21.8835 17.9119 21.8835 18.0682C21.8835 18.2244 21.8243 18.3582 21.706 18.4695C21.59 18.5807 21.4503 18.6364 21.2869 18.6364ZM23.2338 27.0455V19.5455H24.0435V20.4119H24.1429C24.2045 20.3172 24.2897 20.1965 24.3986 20.0497C24.5099 19.9006 24.6685 19.768 24.8745 19.652C25.0828 19.5336 25.3645 19.4744 25.7196 19.4744C26.1789 19.4744 26.5837 19.5893 26.9341 19.8189C27.2845 20.0485 27.5579 20.3741 27.7544 20.7955C27.9509 21.2169 28.0492 21.714 28.0492 22.2869C28.0492 22.8646 27.9509 23.3653 27.7544 23.7891C27.5579 24.2105 27.2857 24.5372 26.9377 24.7692C26.5897 24.9988 26.1884 25.1136 25.7338 25.1136C25.3835 25.1136 25.1029 25.0556 24.8922 24.9396C24.6815 24.8213 24.5194 24.6875 24.4057 24.5384C24.2921 24.3868 24.2045 24.2614 24.1429 24.1619H24.0719V27.0455H23.2338ZM24.0577 22.2727C24.0577 22.6847 24.1181 23.0481 24.2388 23.3629C24.3596 23.6754 24.5359 23.9205 24.7679 24.098C24.9999 24.2732 25.284 24.3608 25.6202 24.3608C25.9706 24.3608 26.263 24.2685 26.4973 24.0838C26.7341 23.8968 26.9116 23.6458 27.03 23.331C27.1507 23.0137 27.2111 22.661 27.2111 22.2727C27.2111 21.8892 27.1519 21.5436 27.0336 21.2358C26.9176 20.9257 26.7412 20.6806 26.5044 20.5007C26.2701 20.3184 25.9753 20.2273 25.6202 20.2273C25.2793 20.2273 24.9928 20.3137 24.7608 20.4865C24.5288 20.657 24.3536 20.8961 24.2353 21.2038C24.1169 21.5092 24.0577 21.8655 24.0577 22.2727ZM31.6145 25.1136C31.089 25.1136 30.6356 24.9976 30.2544 24.7656C29.8757 24.5312 29.5833 24.2045 29.3773 23.7855C29.1737 23.3641 29.0719 22.8741 29.0719 22.3153C29.0719 21.7566 29.1737 21.2642 29.3773 20.8381C29.5833 20.4096 29.8697 20.0758 30.2367 19.8366C30.606 19.5952 31.0369 19.4744 31.5293 19.4744C31.8134 19.4744 32.0939 19.5218 32.3709 19.6165C32.6479 19.7112 32.9 19.8651 33.1273 20.0781C33.3546 20.2888 33.5357 20.5682 33.6706 20.9162C33.8056 21.2642 33.873 21.6927 33.873 22.2017V22.5568H29.6685V21.8324H33.0208C33.0208 21.5246 32.9592 21.25 32.8361 21.0085C32.7154 20.767 32.5426 20.5765 32.3176 20.4368C32.0951 20.2971 31.8323 20.2273 31.5293 20.2273C31.1955 20.2273 30.9067 20.3101 30.6628 20.4759C30.4213 20.6392 30.2355 20.8523 30.1053 21.1151C29.9751 21.3778 29.91 21.6596 29.91 21.9602V22.4432C29.91 22.8551 29.981 23.2043 30.123 23.4908C30.2675 23.7749 30.4675 23.9915 30.7232 24.1406C30.9789 24.2874 31.276 24.3608 31.6145 24.3608C31.8347 24.3608 32.0336 24.33 32.2111 24.2685C32.391 24.2045 32.5461 24.1098 32.6763 23.9844C32.8065 23.8565 32.9071 23.6979 32.9782 23.5085L33.7878 23.7358C33.7026 24.0104 33.5594 24.2519 33.3581 24.4602C33.1569 24.6662 32.9083 24.8272 32.6124 24.9432C32.3165 25.0568 31.9838 25.1136 31.6145 25.1136ZM38.9121 25V25.7812H34.3667V25H38.9121ZM39.783 25V17.7273H40.6211V20.4119H40.6921C40.7537 20.3172 40.8389 20.1965 40.9478 20.0497C41.0591 19.9006 41.2177 19.768 41.4237 19.652C41.632 19.5336 41.9137 19.4744 42.2688 19.4744C42.7281 19.4744 43.1329 19.5893 43.4833 19.8189C43.8337 20.0485 44.1071 20.3741 44.3036 20.7955C44.5001 21.2169 44.5984 21.714 44.5984 22.2869C44.5984 22.8646 44.5001 23.3653 44.3036 23.7891C44.1071 24.2105 43.8349 24.5372 43.4869 24.7692C43.1388 24.9988 42.7376 25.1136 42.283 25.1136C41.9326 25.1136 41.6521 25.0556 41.4414 24.9396C41.2307 24.8213 41.0685 24.6875 40.9549 24.5384C40.8413 24.3868 40.7537 24.2614 40.6921 24.1619H40.5927V25H39.783ZM40.6069 22.2727C40.6069 22.6847 40.6673 23.0481 40.788 23.3629C40.9087 23.6754 41.0851 23.9205 41.3171 24.098C41.5491 24.2732 41.8332 24.3608 42.1694 24.3608C42.5198 24.3608 42.8121 24.2685 43.0465 24.0838C43.2833 23.8968 43.4608 23.6458 43.5792 23.331C43.6999 23.0137 43.7603 22.661 43.7603 22.2727C43.7603 21.8892 43.7011 21.5436 43.5827 21.2358C43.4667 20.9257 43.2904 20.6806 43.0536 20.5007C42.8192 20.3184 42.5245 20.2273 42.1694 20.2273C41.8285 20.2273 41.542 20.3137 41.31 20.4865C41.078 20.657 40.9028 20.8961 40.7844 21.2038C40.6661 21.5092 40.6069 21.8655 40.6069 22.2727ZM49.3178 22.7699V19.5455H50.1559V25H49.3178V24.0767H49.261C49.1332 24.3537 48.9343 24.5893 48.6644 24.7834C48.3945 24.9751 48.0536 25.071 47.6417 25.071C47.3008 25.071 46.9978 24.9964 46.7326 24.8473C46.4674 24.6958 46.2591 24.4685 46.1076 24.1655C45.9561 23.8601 45.8803 23.4754 45.8803 23.0114V19.5455H46.7184V22.9545C46.7184 23.3523 46.8297 23.6695 47.0522 23.9062C47.2771 24.143 47.5636 24.2614 47.9116 24.2614C48.1199 24.2614 48.3318 24.2081 48.5472 24.1016C48.765 23.995 48.9473 23.8317 49.0941 23.6115C49.2433 23.3913 49.3178 23.1108 49.3178 22.7699ZM54.1199 19.5455V20.2557H51.1795V19.5455H54.1199ZM52.0602 25V18.7926C52.0602 18.4801 52.1336 18.2197 52.2804 18.0114C52.4271 17.803 52.6177 17.6468 52.8521 17.5426C53.0865 17.4384 53.3339 17.3864 53.5943 17.3864C53.8002 17.3864 53.9683 17.4029 54.0985 17.4361C54.2288 17.4692 54.3258 17.5 54.3897 17.5284L54.1483 18.2528C54.1056 18.2386 54.0465 18.2209 53.9707 18.1996C53.8973 18.1783 53.8002 18.1676 53.6795 18.1676C53.4025 18.1676 53.2025 18.2375 53.0794 18.3771C52.9586 18.5168 52.8983 18.7216 52.8983 18.9915V25H52.0602ZM57.7234 19.5455V20.2557H54.783V19.5455H57.7234ZM55.6637 25V18.7926C55.6637 18.4801 55.7371 18.2197 55.8839 18.0114C56.0307 17.803 56.2212 17.6468 56.4556 17.5426C56.69 17.4384 56.9374 17.3864 57.1978 17.3864C57.4038 17.3864 57.5719 17.4029 57.7021 17.4361C57.8323 17.4692 57.9293 17.5 57.9933 17.5284L57.7518 18.2528C57.7092 18.2386 57.65 18.2209 57.5742 18.1996C57.5008 18.1783 57.4038 18.1676 57.283 18.1676C57.006 18.1676 56.806 18.2375 56.6829 18.3771C56.5621 18.5168 56.5018 18.7216 56.5018 18.9915V25H55.6637ZM60.9602 25.1136C60.4347 25.1136 59.9813 24.9976 59.6001 24.7656C59.2214 24.5312 58.929 24.2045 58.723 23.7855C58.5194 23.3641 58.4176 22.8741 58.4176 22.3153C58.4176 21.7566 58.5194 21.2642 58.723 20.8381C58.929 20.4096 59.2154 20.0758 59.5824 19.8366C59.9517 19.5952 60.3826 19.4744 60.875 19.4744C61.1591 19.4744 61.4396 19.5218 61.7166 19.6165C61.9936 19.7112 62.2457 19.8651 62.473 20.0781C62.7003 20.2888 62.8814 20.5682 63.0163 20.9162C63.1513 21.2642 63.2188 21.6927 63.2188 22.2017V22.5568H59.0142V21.8324H62.3665C62.3665 21.5246 62.3049 21.25 62.1818 21.0085C62.0611 20.767 61.8883 20.5765 61.6634 20.4368C61.4408 20.2971 61.178 20.2273 60.875 20.2273C60.5412 20.2273 60.2524 20.3101 60.0085 20.4759C59.767 20.6392 59.5812 20.8523 59.451 21.1151C59.3208 21.3778 59.2557 21.6596 59.2557 21.9602V22.4432C59.2557 22.8551 59.3267 23.2043 59.4688 23.4908C59.6132 23.7749 59.8132 23.9915 60.0689 24.1406C60.3246 24.2874 60.6217 24.3608 60.9602 24.3608C61.1804 24.3608 61.3793 24.33 61.5568 24.2685C61.7367 24.2045 61.8918 24.1098 62.022 23.9844C62.1522 23.8565 62.2528 23.6979 62.3239 23.5085L63.1335 23.7358C63.0483 24.0104 62.9051 24.2519 62.7038 24.4602C62.5026 24.6662 62.254 24.8272 61.9581 24.9432C61.6622 25.0568 61.3295 25.1136 60.9602 25.1136ZM64.4936 25V19.5455H65.3033V20.3693H65.3601C65.4595 20.0994 65.6394 19.8804 65.8999 19.7124C66.1603 19.5443 66.4538 19.4602 66.7805 19.4602C66.8421 19.4602 66.919 19.4614 67.0114 19.4638C67.1037 19.4661 67.1735 19.4697 67.2209 19.4744V20.3267C67.1925 20.3196 67.1274 20.3089 67.0256 20.2947C66.9261 20.2782 66.8208 20.2699 66.7095 20.2699C66.4444 20.2699 66.2076 20.3255 65.9993 20.4368C65.7933 20.5457 65.63 20.6972 65.5092 20.8913C65.3909 21.0831 65.3317 21.3021 65.3317 21.5483V25H64.4936Z" fill="black"/>
<rect x="5" y="7" width="72" height="28" fill="#DCD6D6"/>
<path d="M24.7457 21.8523C24.7457 21.2259 24.8269 20.65 24.9893 20.1246C25.1534 19.5977 25.3871 19.1129 25.6903 18.6705H26.2074C26.0881 18.8345 25.9762 19.0367 25.8718 19.277C25.7691 19.5156 25.6787 19.7783 25.6009 20.065C25.523 20.35 25.4616 20.645 25.4169 20.9499C25.3738 21.2549 25.3523 21.5556 25.3523 21.8523C25.3523 22.2467 25.3904 22.6469 25.4666 23.0529C25.5429 23.4589 25.6456 23.8359 25.7749 24.1839C25.9041 24.532 26.0483 24.8153 26.2074 25.0341H25.6903C25.3871 24.5916 25.1534 24.1077 24.9893 23.5824C24.8269 23.0554 24.7457 22.4787 24.7457 21.8523ZM27.0731 24V20.1818H27.6398V20.7585H27.6796C27.7492 20.5696 27.8751 20.4163 28.0574 20.2987C28.2397 20.181 28.4452 20.1222 28.6739 20.1222C28.717 20.1222 28.7709 20.123 28.8355 20.1246C28.9001 20.1263 28.949 20.1288 28.9822 20.1321V20.7287C28.9623 20.7237 28.9167 20.7163 28.8454 20.7063C28.7758 20.6947 28.7021 20.6889 28.6242 20.6889C28.4386 20.6889 28.2729 20.7279 28.127 20.8058C27.9829 20.882 27.8685 20.988 27.784 21.1239C27.7011 21.2582 27.6597 21.4115 27.6597 21.5838V24H27.0731ZM31.1622 24.0795C30.7943 24.0795 30.4769 23.9983 30.2101 23.8359C29.945 23.6719 29.7403 23.4432 29.5961 23.1499C29.4536 22.8549 29.3824 22.5118 29.3824 22.1207C29.3824 21.7296 29.4536 21.3849 29.5961 21.0866C29.7403 20.7867 29.9408 20.553 30.1977 20.3857C30.4562 20.2166 30.7578 20.1321 31.1025 20.1321C31.3014 20.1321 31.4978 20.1652 31.6917 20.2315C31.8856 20.2978 32.0621 20.4055 32.2211 20.5547C32.3802 20.7022 32.507 20.8977 32.6015 21.1413C32.6959 21.3849 32.7432 21.6849 32.7432 22.0412V22.2898H29.8V21.7827H32.1466C32.1466 21.5672 32.1035 21.375 32.0173 21.206C31.9328 21.0369 31.8118 20.9035 31.6544 20.8058C31.4986 20.708 31.3147 20.6591 31.1025 20.6591C30.8689 20.6591 30.6667 20.7171 30.496 20.8331C30.327 20.9474 30.1969 21.0966 30.1057 21.2805C30.0146 21.4645 29.969 21.6617 29.969 21.8722V22.2102C29.969 22.4986 30.0187 22.743 30.1182 22.9435C30.2193 23.1424 30.3593 23.294 30.5383 23.3984C30.7172 23.5012 30.9252 23.5526 31.1622 23.5526C31.3163 23.5526 31.4555 23.531 31.5798 23.4879C31.7058 23.4432 31.8143 23.3769 31.9055 23.2891C31.9966 23.1996 32.067 23.0885 32.1167 22.956L32.6835 23.1151C32.6238 23.3073 32.5236 23.4763 32.3827 23.6222C32.2419 23.7663 32.0679 23.879 31.8607 23.9602C31.6536 24.0398 31.4207 24.0795 31.1622 24.0795ZM34.2222 18.9091V24H33.6356V18.9091H34.2222ZM36.8975 24.0795C36.5297 24.0795 36.2123 23.9983 35.9455 23.8359C35.6803 23.6719 35.4757 23.4432 35.3315 23.1499C35.189 22.8549 35.1177 22.5118 35.1177 22.1207C35.1177 21.7296 35.189 21.3849 35.3315 21.0866C35.4757 20.7867 35.6762 20.553 35.9331 20.3857C36.1916 20.2166 36.4932 20.1321 36.8379 20.1321C37.0368 20.1321 37.2331 20.1652 37.427 20.2315C37.6209 20.2978 37.7974 20.4055 37.9565 20.5547C38.1156 20.7022 38.2424 20.8977 38.3368 21.1413C38.4313 21.3849 38.4785 21.6849 38.4785 22.0412V22.2898H35.5353V21.7827H37.8819C37.8819 21.5672 37.8388 21.375 37.7527 21.206C37.6681 21.0369 37.5472 20.9035 37.3897 20.8058C37.234 20.708 37.05 20.6591 36.8379 20.6591C36.6042 20.6591 36.402 20.7171 36.2314 20.8331C36.0623 20.9474 35.9322 21.0966 35.8411 21.2805C35.7499 21.4645 35.7044 21.6617 35.7044 21.8722V22.2102C35.7044 22.4986 35.7541 22.743 35.8535 22.9435C35.9546 23.1424 36.0946 23.294 36.2736 23.3984C36.4526 23.5012 36.6606 23.5526 36.8975 23.5526C37.0517 23.5526 37.1909 23.531 37.3152 23.4879C37.4411 23.4432 37.5497 23.3769 37.6408 23.2891C37.7319 23.1996 37.8024 23.0885 37.8521 22.956L38.4189 23.1151C38.3592 23.3073 38.2589 23.4763 38.1181 23.6222C37.9772 23.7663 37.8032 23.879 37.5961 23.9602C37.3889 24.0398 37.1561 24.0795 36.8975 24.0795ZM40.4945 24.0895C40.2525 24.0895 40.033 24.0439 39.8358 23.9528C39.6386 23.86 39.4819 23.7266 39.3659 23.5526C39.2499 23.3769 39.1919 23.1648 39.1919 22.9162C39.1919 22.6974 39.235 22.5201 39.3212 22.3842C39.4074 22.2467 39.5225 22.139 39.6667 22.0611C39.8109 21.9832 39.97 21.9252 40.144 21.8871C40.3197 21.8473 40.4962 21.8158 40.6735 21.7926C40.9055 21.7628 41.0936 21.7404 41.2377 21.7255C41.3836 21.7089 41.4896 21.6816 41.5559 21.6435C41.6239 21.6054 41.6578 21.5391 41.6578 21.4446V21.4247C41.6578 21.1795 41.5907 20.9889 41.4565 20.853C41.3239 20.7171 41.1226 20.6491 40.8525 20.6491C40.5724 20.6491 40.3528 20.7105 40.1937 20.8331C40.0346 20.9557 39.9228 21.0866 39.8581 21.2259L39.3013 21.027C39.4007 20.795 39.5333 20.6143 39.699 20.4851C39.8664 20.3542 40.0487 20.263 40.2459 20.2116C40.4448 20.1586 40.6403 20.1321 40.8326 20.1321C40.9552 20.1321 41.0961 20.147 41.2551 20.1768C41.4159 20.205 41.5708 20.2638 41.72 20.3533C41.8708 20.4428 41.9959 20.5779 42.0953 20.7585C42.1948 20.9392 42.2445 21.1811 42.2445 21.4844V24H41.6578V23.483H41.628C41.5882 23.5658 41.522 23.6545 41.4292 23.7489C41.3364 23.8434 41.2129 23.9238 41.0588 23.9901C40.9047 24.0563 40.7166 24.0895 40.4945 24.0895ZM40.584 23.5625C40.816 23.5625 41.0115 23.5169 41.1706 23.4258C41.3314 23.3346 41.4524 23.217 41.5336 23.0728C41.6164 22.9286 41.6578 22.777 41.6578 22.6179V22.081C41.633 22.1108 41.5783 22.1381 41.4938 22.163C41.4109 22.1862 41.3148 22.2069 41.2054 22.2251C41.0977 22.2417 40.9925 22.2566 40.8897 22.2699C40.7886 22.2815 40.7066 22.2914 40.6436 22.2997C40.4912 22.3196 40.3487 22.3519 40.2161 22.3967C40.0852 22.4397 39.9791 22.5052 39.8979 22.593C39.8184 22.6792 39.7786 22.7969 39.7786 22.946C39.7786 23.1499 39.854 23.304 40.0048 23.4084C40.1573 23.5111 40.3503 23.5625 40.584 23.5625ZM46.0198 21.0369L45.4928 21.1861C45.4597 21.0982 45.4108 21.0129 45.3461 20.93C45.2832 20.8455 45.197 20.7759 45.0876 20.7212C44.9782 20.6665 44.8382 20.6392 44.6675 20.6392C44.4339 20.6392 44.2391 20.6931 44.0834 20.8008C43.9292 20.9068 43.8522 21.0419 43.8522 21.206C43.8522 21.3518 43.9052 21.467 44.0113 21.5515C44.1173 21.636 44.2831 21.7064 44.5084 21.7628L45.0752 21.902C45.4166 21.9848 45.671 22.1116 45.8383 22.2823C46.0057 22.4513 46.0894 22.6693 46.0894 22.9361C46.0894 23.1548 46.0264 23.3504 45.9005 23.5227C45.7762 23.6951 45.6022 23.831 45.3785 23.9304C45.1547 24.0298 44.8946 24.0795 44.5979 24.0795C44.2085 24.0795 43.8862 23.995 43.6309 23.826C43.3757 23.657 43.2142 23.41 43.1462 23.0852L43.703 22.946C43.7561 23.1515 43.8563 23.3056 44.0038 23.4084C44.153 23.5111 44.3477 23.5625 44.588 23.5625C44.8614 23.5625 45.0785 23.5045 45.2393 23.3885C45.4017 23.2708 45.4829 23.13 45.4829 22.9659C45.4829 22.8333 45.4365 22.7223 45.3437 22.6328C45.2509 22.5417 45.1083 22.4737 44.9161 22.429L44.2797 22.2798C43.9301 22.197 43.6732 22.0685 43.5091 21.8945C43.3467 21.7189 43.2655 21.4993 43.2655 21.2358C43.2655 21.0204 43.326 20.8298 43.447 20.6641C43.5696 20.4983 43.7362 20.3683 43.9466 20.2738C44.1588 20.1793 44.3991 20.1321 44.6675 20.1321C45.0454 20.1321 45.342 20.215 45.5574 20.3807C45.7745 20.5464 45.9287 20.7652 46.0198 21.0369ZM48.5733 24.0795C48.2054 24.0795 47.8881 23.9983 47.6213 23.8359C47.3561 23.6719 47.1515 23.4432 47.0073 23.1499C46.8648 22.8549 46.7935 22.5118 46.7935 22.1207C46.7935 21.7296 46.8648 21.3849 47.0073 21.0866C47.1515 20.7867 47.352 20.553 47.6088 20.3857C47.8674 20.2166 48.169 20.1321 48.5137 20.1321C48.7125 20.1321 48.9089 20.1652 49.1028 20.2315C49.2967 20.2978 49.4732 20.4055 49.6323 20.5547C49.7914 20.7022 49.9181 20.8977 50.0126 21.1413C50.1071 21.3849 50.1543 21.6849 50.1543 22.0412V22.2898H47.2111V21.7827H49.5577C49.5577 21.5672 49.5146 21.375 49.4284 21.206C49.3439 21.0369 49.223 20.9035 49.0655 20.8058C48.9097 20.708 48.7258 20.6591 48.5137 20.6591C48.28 20.6591 48.0778 20.7171 47.9071 20.8331C47.7381 20.9474 47.608 21.0966 47.5169 21.2805C47.4257 21.4645 47.3801 21.6617 47.3801 21.8722V22.2102C47.3801 22.4986 47.4299 22.743 47.5293 22.9435C47.6304 23.1424 47.7704 23.294 47.9494 23.3984C48.1284 23.5012 48.3364 23.5526 48.5733 23.5526C48.7275 23.5526 48.8667 23.531 48.9909 23.4879C49.1169 23.4432 49.2254 23.3769 49.3166 23.2891C49.4077 23.1996 49.4782 23.0885 49.5279 22.956L50.0946 23.1151C50.035 23.3073 49.9347 23.4763 49.7939 23.6222C49.653 23.7663 49.479 23.879 49.2718 23.9602C49.0647 24.0398 48.8319 24.0795 48.5733 24.0795ZM52.4885 24.0795C52.1703 24.0795 51.8894 23.9992 51.6458 23.8384C51.4022 23.676 51.2116 23.4473 51.074 23.1523C50.9365 22.8557 50.8677 22.5052 50.8677 22.1009C50.8677 21.6998 50.9365 21.3518 51.074 21.0568C51.2116 20.7618 51.403 20.534 51.6483 20.3732C51.8935 20.2125 52.1769 20.1321 52.4984 20.1321C52.747 20.1321 52.9434 20.1735 53.0875 20.2564C53.2334 20.3376 53.3444 20.4304 53.4206 20.5348C53.4985 20.6375 53.559 20.7221 53.6021 20.7884H53.6518V18.9091H54.2385V24H53.6717V23.4134H53.6021C53.559 23.483 53.4977 23.5708 53.4181 23.6768C53.3386 23.7812 53.2251 23.8749 53.0776 23.9577C52.9301 24.0389 52.7337 24.0795 52.4885 24.0795ZM52.568 23.5526C52.8033 23.5526 53.0022 23.4912 53.1646 23.3686C53.327 23.2443 53.4505 23.0728 53.535 22.854C53.6195 22.6336 53.6618 22.3793 53.6618 22.0909C53.6618 21.8059 53.6203 21.5565 53.5375 21.3427C53.4546 21.1272 53.332 20.9599 53.1696 20.8406C53.0072 20.7196 52.8066 20.6591 52.568 20.6591C52.3194 20.6591 52.1123 20.7229 51.9466 20.8505C51.7825 20.9764 51.659 21.148 51.5762 21.3651C51.495 21.5805 51.4544 21.8224 51.4544 22.0909C51.4544 22.3627 51.4958 22.6096 51.5787 22.8317C51.6632 23.0521 51.7875 23.2277 51.9515 23.3587C52.1172 23.4879 52.3227 23.5526 52.568 23.5526ZM56.6472 21.8523C56.6472 22.4787 56.5652 23.0554 56.4011 23.5824C56.2387 24.1077 56.0059 24.5916 55.7026 25.0341H55.1855C55.3049 24.87 55.4159 24.6679 55.5186 24.4276C55.623 24.1889 55.7142 23.9271 55.7921 23.642C55.87 23.3554 55.9305 23.0595 55.9735 22.7546C56.0183 22.448 56.0407 22.1473 56.0407 21.8523C56.0407 21.4579 56.0025 21.0576 55.9263 20.6516C55.8501 20.2456 55.7473 19.8686 55.6181 19.5206C55.4888 19.1726 55.3446 18.8892 55.1855 18.6705H55.7026C56.0059 19.1129 56.2387 19.5977 56.4011 20.1246C56.5652 20.65 56.6472 21.2259 56.6472 21.8523Z" fill="black"/>
<rect x="5" y="41" width="72" height="28" fill="#DCD6D6"/>
<path d="M22.5369 59.4318V54.1818H23.1037V54.7884H23.1733C23.2164 54.7221 23.276 54.6375 23.3523 54.5348C23.4302 54.4304 23.5412 54.3376 23.6854 54.2564C23.8312 54.1735 24.0284 54.1321 24.277 54.1321C24.5985 54.1321 24.8819 54.2125 25.1271 54.3732C25.3724 54.534 25.5638 54.7618 25.7013 55.0568C25.8389 55.3518 25.9077 55.6998 25.9077 56.1009C25.9077 56.5052 25.8389 56.8557 25.7013 57.1523C25.5638 57.4473 25.3732 57.676 25.1296 57.8384C24.886 57.9992 24.6051 58.0795 24.2869 58.0795C24.0417 58.0795 23.8453 58.0389 23.6978 57.9577C23.5503 57.8749 23.4368 57.7812 23.3572 57.6768C23.2777 57.5708 23.2164 57.483 23.1733 57.4134H23.1236V59.4318H22.5369ZM23.1136 56.0909C23.1136 56.3793 23.1559 56.6336 23.2404 56.854C23.3249 57.0728 23.4484 57.2443 23.6108 57.3686C23.7732 57.4912 23.9721 57.5526 24.2074 57.5526C24.4527 57.5526 24.6573 57.4879 24.8214 57.3587C24.9871 57.2277 25.1114 57.0521 25.1942 56.8317C25.2788 56.6096 25.321 56.3627 25.321 56.0909C25.321 55.8224 25.2796 55.5805 25.1967 55.3651C25.1155 55.148 24.9921 54.9764 24.8263 54.8505C24.6623 54.7229 24.456 54.6591 24.2074 54.6591C23.9688 54.6591 23.7682 54.7196 23.6058 54.8406C23.4434 54.9599 23.3208 55.1272 23.2379 55.3427C23.1551 55.5565 23.1136 55.8059 23.1136 56.0909ZM26.8026 58V54.1818H27.3892V58H26.8026ZM27.1009 53.5455C26.9865 53.5455 26.8879 53.5065 26.805 53.4286C26.7238 53.3507 26.6832 53.2571 26.6832 53.1477C26.6832 53.0384 26.7238 52.9447 26.805 52.8668C26.8879 52.7889 26.9865 52.75 27.1009 52.75C27.2152 52.75 27.313 52.7889 27.3942 52.8668C27.477 52.9447 27.5185 53.0384 27.5185 53.1477C27.5185 53.2571 27.477 53.3507 27.3942 53.4286C27.313 53.5065 27.2152 53.5455 27.1009 53.5455ZM28.4637 59.4318V54.1818H29.0305V54.7884H29.1001C29.1431 54.7221 29.2028 54.6375 29.279 54.5348C29.3569 54.4304 29.468 54.3376 29.6121 54.2564C29.758 54.1735 29.9552 54.1321 30.2037 54.1321C30.5252 54.1321 30.8086 54.2125 31.0539 54.3732C31.2992 54.534 31.4906 54.7618 31.6281 55.0568C31.7657 55.3518 31.8344 55.6998 31.8344 56.1009C31.8344 56.5052 31.7657 56.8557 31.6281 57.1523C31.4906 57.4473 31.3 57.676 31.0564 57.8384C30.8128 57.9992 30.5319 58.0795 30.2137 58.0795C29.9684 58.0795 29.772 58.0389 29.6246 57.9577C29.4771 57.8749 29.3635 57.7812 29.284 57.6768C29.2045 57.5708 29.1431 57.483 29.1001 57.4134H29.0503V59.4318H28.4637ZM29.0404 56.0909C29.0404 56.3793 29.0827 56.6336 29.1672 56.854C29.2517 57.0728 29.3751 57.2443 29.5376 57.3686C29.7 57.4912 29.8988 57.5526 30.1341 57.5526C30.3794 57.5526 30.5841 57.4879 30.7481 57.3587C30.9139 57.2277 31.0381 57.0521 31.121 56.8317C31.2055 56.6096 31.2478 56.3627 31.2478 56.0909C31.2478 55.8224 31.2064 55.5805 31.1235 55.3651C31.0423 55.148 30.9188 54.9764 30.7531 54.8505C30.589 54.7229 30.3827 54.6591 30.1341 54.6591C29.8955 54.6591 29.695 54.7196 29.5326 54.8406C29.3702 54.9599 29.2475 55.1272 29.1647 55.3427C29.0818 55.5565 29.0404 55.8059 29.0404 56.0909ZM34.3302 58.0795C33.9623 58.0795 33.6449 57.9983 33.3781 57.8359C33.113 57.6719 32.9083 57.4432 32.7641 57.1499C32.6216 56.8549 32.5503 56.5118 32.5503 56.1207C32.5503 55.7296 32.6216 55.3849 32.7641 55.0866C32.9083 54.7867 33.1088 54.553 33.3657 54.3857C33.6242 54.2166 33.9258 54.1321 34.2705 54.1321C34.4694 54.1321 34.6657 54.1652 34.8596 54.2315C35.0535 54.2978 35.23 54.4055 35.3891 54.5547C35.5482 54.7022 35.675 54.8977 35.7694 55.1413C35.8639 55.3849 35.9111 55.6849 35.9111 56.0412V56.2898H32.968V55.7827H35.3145C35.3145 55.5672 35.2715 55.375 35.1853 55.206C35.1008 55.0369 34.9798 54.9035 34.8224 54.8058C34.6666 54.708 34.4826 54.6591 34.2705 54.6591C34.0368 54.6591 33.8347 54.7171 33.664 54.8331C33.4949 54.9474 33.3648 55.0966 33.2737 55.2805C33.1826 55.4645 33.137 55.6617 33.137 55.8722V56.2102C33.137 56.4986 33.1867 56.743 33.2861 56.9435C33.3872 57.1424 33.5273 57.294 33.7062 57.3984C33.8852 57.5012 34.0932 57.5526 34.3302 57.5526C34.4843 57.5526 34.6235 57.531 34.7478 57.4879C34.8737 57.4432 34.9823 57.3769 35.0734 57.2891C35.1646 57.1996 35.235 57.0885 35.2847 56.956L35.8515 57.1151C35.7918 57.3073 35.6916 57.4763 35.5507 57.6222C35.4098 57.7663 35.2358 57.879 35.0287 57.9602C34.8215 58.0398 34.5887 58.0795 34.3302 58.0795ZM39.4385 58V58.5469H36.2567V58H39.4385ZM40.0481 58V52.9091H40.6348V54.7884H40.6845C40.7276 54.7221 40.7872 54.6375 40.8635 54.5348C40.9413 54.4304 41.0524 54.3376 41.1966 54.2564C41.3424 54.1735 41.5396 54.1321 41.7882 54.1321C42.1097 54.1321 42.3931 54.2125 42.6383 54.3732C42.8836 54.534 43.075 54.7618 43.2125 55.0568C43.3501 55.3518 43.4189 55.6998 43.4189 56.1009C43.4189 56.5052 43.3501 56.8557 43.2125 57.1523C43.075 57.4473 42.8844 57.676 42.6408 57.8384C42.3972 57.9992 42.1163 58.0795 41.7981 58.0795C41.5529 58.0795 41.3565 58.0389 41.209 57.9577C41.0615 57.8749 40.948 57.7812 40.8684 57.6768C40.7889 57.5708 40.7276 57.483 40.6845 57.4134H40.6149V58H40.0481ZM40.6248 56.0909C40.6248 56.3793 40.6671 56.6336 40.7516 56.854C40.8361 57.0728 40.9596 57.2443 41.122 57.3686C41.2844 57.4912 41.4833 57.5526 41.7186 57.5526C41.9638 57.5526 42.1685 57.4879 42.3326 57.3587C42.4983 57.2277 42.6226 57.0521 42.7054 56.8317C42.79 56.6096 42.8322 56.3627 42.8322 56.0909C42.8322 55.8224 42.7908 55.5805 42.7079 55.3651C42.6267 55.148 42.5033 54.9764 42.3375 54.8505C42.1735 54.7229 41.9672 54.6591 41.7186 54.6591C41.4799 54.6591 41.2794 54.7196 41.117 54.8406C40.9546 54.9599 40.832 55.1272 40.7491 55.3427C40.6663 55.5565 40.6248 55.8059 40.6248 56.0909ZM46.7225 56.4389V54.1818H47.3091V58H46.7225V57.3537H46.6827C46.5932 57.5476 46.454 57.7125 46.2651 57.8484C46.0762 57.9826 45.8375 58.0497 45.5492 58.0497C45.3105 58.0497 45.0984 57.9975 44.9128 57.8931C44.7272 57.7871 44.5814 57.628 44.4753 57.4158C44.3693 57.2021 44.3162 56.9328 44.3162 56.608V54.1818H44.9029V56.5682C44.9029 56.8466 44.9808 57.0687 45.1365 57.2344C45.294 57.4001 45.4945 57.483 45.7381 57.483C45.8839 57.483 46.0323 57.4457 46.1831 57.3711C46.3355 57.2965 46.4631 57.1822 46.5659 57.0281C46.6703 56.8739 46.7225 56.6776 46.7225 56.4389ZM50.0839 54.1818V54.679H48.0257V54.1818H50.0839ZM48.6421 58V53.6548C48.6421 53.4361 48.6935 53.2538 48.7963 53.108C48.899 52.9621 49.0324 52.8527 49.1965 52.7798C49.3605 52.7069 49.5337 52.6705 49.716 52.6705C49.8602 52.6705 49.9778 52.6821 50.069 52.7053C50.1601 52.7285 50.2281 52.75 50.2728 52.7699L50.1038 53.277C50.074 53.267 50.0325 53.2546 49.9795 53.2397C49.9281 53.2248 49.8602 53.2173 49.7757 53.2173C49.5818 53.2173 49.4417 53.2662 49.3556 53.364C49.271 53.4618 49.2288 53.6051 49.2288 53.794V58H48.6421ZM52.6064 54.1818V54.679H50.5481V54.1818H52.6064ZM51.1646 58V53.6548C51.1646 53.4361 51.216 53.2538 51.3187 53.108C51.4215 52.9621 51.5549 52.8527 51.7189 52.7798C51.883 52.7069 52.0562 52.6705 52.2385 52.6705C52.3826 52.6705 52.5003 52.6821 52.5914 52.7053C52.6826 52.7285 52.7505 52.75 52.7953 52.7699L52.6262 53.277C52.5964 53.267 52.555 53.2546 52.502 53.2397C52.4506 53.2248 52.3826 53.2173 52.2981 53.2173C52.1042 53.2173 51.9642 53.2662 51.878 53.364C51.7935 53.4618 51.7512 53.6051 51.7512 53.794V58H51.1646ZM54.8722 58.0795C54.5043 58.0795 54.1869 57.9983 53.9201 57.8359C53.6549 57.6719 53.4503 57.4432 53.3061 57.1499C53.1636 56.8549 53.0923 56.5118 53.0923 56.1207C53.0923 55.7296 53.1636 55.3849 53.3061 55.0866C53.4503 54.7867 53.6508 54.553 53.9077 54.3857C54.1662 54.2166 54.4678 54.1321 54.8125 54.1321C55.0114 54.1321 55.2077 54.1652 55.4016 54.2315C55.5955 54.2978 55.772 54.4055 55.9311 54.5547C56.0902 54.7022 56.217 54.8977 56.3114 55.1413C56.4059 55.3849 56.4531 55.6849 56.4531 56.0412V56.2898H53.5099V55.7827H55.8565C55.8565 55.5672 55.8134 55.375 55.7273 55.206C55.6428 55.0369 55.5218 54.9035 55.3643 54.8058C55.2086 54.708 55.0246 54.6591 54.8125 54.6591C54.5788 54.6591 54.3767 54.7171 54.206 54.8331C54.0369 54.9474 53.9068 55.0966 53.8157 55.2805C53.7246 55.4645 53.679 55.6617 53.679 55.8722V56.2102C53.679 56.4986 53.7287 56.743 53.8281 56.9435C53.9292 57.1424 54.0692 57.294 54.2482 57.3984C54.4272 57.5012 54.6352 57.5526 54.8722 57.5526C55.0263 57.5526 55.1655 57.531 55.2898 57.4879C55.4157 57.4432 55.5243 57.3769 55.6154 57.2891C55.7066 57.1996 55.777 57.0885 55.8267 56.956L56.3935 57.1151C56.3338 57.3073 56.2335 57.4763 56.0927 57.6222C55.9518 57.7663 55.7778 57.879 55.5707 57.9602C55.3635 58.0398 55.1307 58.0795 54.8722 58.0795ZM57.3455 58V54.1818H57.9123V54.7585H57.9521C58.0217 54.5696 58.1476 54.4163 58.3299 54.2987C58.5122 54.181 58.7177 54.1222 58.9464 54.1222C58.9895 54.1222 59.0433 54.123 59.108 54.1246C59.1726 54.1263 59.2215 54.1288 59.2546 54.1321V54.7287C59.2347 54.7237 59.1892 54.7163 59.1179 54.7063C59.0483 54.6947 58.9746 54.6889 58.8967 54.6889C58.7111 54.6889 58.5453 54.7279 58.3995 54.8058C58.2553 54.882 58.141 54.988 58.0565 55.1239C57.9736 55.2582 57.9322 55.4115 57.9322 55.5838V58H57.3455Z" fill="black"/>
<rect x="5" y="75" width="72" height="28" fill="#DCD6D6"/>
<path d="M22.5369 93.4318V88.1818H23.1037V88.7884H23.1733C23.2164 88.7221 23.276 88.6375 23.3523 88.5348C23.4302 88.4304 23.5412 88.3376 23.6854 88.2564C23.8312 88.1735 24.0284 88.1321 24.277 88.1321C24.5985 88.1321 24.8819 88.2125 25.1271 88.3732C25.3724 88.534 25.5638 88.7618 25.7013 89.0568C25.8389 89.3518 25.9077 89.6998 25.9077 90.1009C25.9077 90.5052 25.8389 90.8557 25.7013 91.1523C25.5638 91.4473 25.3732 91.676 25.1296 91.8384C24.886 91.9992 24.6051 92.0795 24.2869 92.0795C24.0417 92.0795 23.8453 92.0389 23.6978 91.9577C23.5503 91.8749 23.4368 91.7812 23.3572 91.6768C23.2777 91.5708 23.2164 91.483 23.1733 91.4134H23.1236V93.4318H22.5369ZM23.1136 90.0909C23.1136 90.3793 23.1559 90.6336 23.2404 90.854C23.3249 91.0728 23.4484 91.2443 23.6108 91.3686C23.7732 91.4912 23.9721 91.5526 24.2074 91.5526C24.4527 91.5526 24.6573 91.4879 24.8214 91.3587C24.9871 91.2277 25.1114 91.0521 25.1942 90.8317C25.2788 90.6096 25.321 90.3627 25.321 90.0909C25.321 89.8224 25.2796 89.5805 25.1967 89.3651C25.1155 89.148 24.9921 88.9764 24.8263 88.8505C24.6623 88.7229 24.456 88.6591 24.2074 88.6591C23.9688 88.6591 23.7682 88.7196 23.6058 88.8406C23.4434 88.9599 23.3208 89.1272 23.2379 89.3427C23.1551 89.5565 23.1136 89.8059 23.1136 90.0909ZM26.8026 92V88.1818H27.3892V92H26.8026ZM27.1009 87.5455C26.9865 87.5455 26.8879 87.5065 26.805 87.4286C26.7238 87.3507 26.6832 87.2571 26.6832 87.1477C26.6832 87.0384 26.7238 86.9447 26.805 86.8668C26.8879 86.7889 26.9865 86.75 27.1009 86.75C27.2152 86.75 27.313 86.7889 27.3942 86.8668C27.477 86.9447 27.5185 87.0384 27.5185 87.1477C27.5185 87.2571 27.477 87.3507 27.3942 87.4286C27.313 87.5065 27.2152 87.5455 27.1009 87.5455ZM28.4637 93.4318V88.1818H29.0305V88.7884H29.1001C29.1431 88.7221 29.2028 88.6375 29.279 88.5348C29.3569 88.4304 29.468 88.3376 29.6121 88.2564C29.758 88.1735 29.9552 88.1321 30.2037 88.1321C30.5252 88.1321 30.8086 88.2125 31.0539 88.3732C31.2992 88.534 31.4906 88.7618 31.6281 89.0568C31.7657 89.3518 31.8344 89.6998 31.8344 90.1009C31.8344 90.5052 31.7657 90.8557 31.6281 91.1523C31.4906 91.4473 31.3 91.676 31.0564 91.8384C30.8128 91.9992 30.5319 92.0795 30.2137 92.0795C29.9684 92.0795 29.772 92.0389 29.6246 91.9577C29.4771 91.8749 29.3635 91.7812 29.284 91.6768C29.2045 91.5708 29.1431 91.483 29.1001 91.4134H29.0503V93.4318H28.4637ZM29.0404 90.0909C29.0404 90.3793 29.0827 90.6336 29.1672 90.854C29.2517 91.0728 29.3751 91.2443 29.5376 91.3686C29.7 91.4912 29.8988 91.5526 30.1341 91.5526C30.3794 91.5526 30.5841 91.4879 30.7481 91.3587C30.9139 91.2277 31.0381 91.0521 31.121 90.8317C31.2055 90.6096 31.2478 90.3627 31.2478 90.0909C31.2478 89.8224 31.2064 89.5805 31.1235 89.3651C31.0423 89.148 30.9188 88.9764 30.7531 88.8505C30.589 88.7229 30.3827 88.6591 30.1341 88.6591C29.8955 88.6591 29.695 88.7196 29.5326 88.8406C29.3702 88.9599 29.2475 89.1272 29.1647 89.3427C29.0818 89.5565 29.0404 89.8059 29.0404 90.0909ZM34.3302 92.0795C33.9623 92.0795 33.6449 91.9983 33.3781 91.8359C33.113 91.6719 32.9083 91.4432 32.7641 91.1499C32.6216 90.8549 32.5503 90.5118 32.5503 90.1207C32.5503 89.7296 32.6216 89.3849 32.7641 89.0866C32.9083 88.7867 33.1088 88.553 33.3657 88.3857C33.6242 88.2166 33.9258 88.1321 34.2705 88.1321C34.4694 88.1321 34.6657 88.1652 34.8596 88.2315C35.0535 88.2978 35.23 88.4055 35.3891 88.5547C35.5482 88.7022 35.675 88.8977 35.7694 89.1413C35.8639 89.3849 35.9111 89.6849 35.9111 90.0412V90.2898H32.968V89.7827H35.3145C35.3145 89.5672 35.2715 89.375 35.1853 89.206C35.1008 89.0369 34.9798 88.9035 34.8224 88.8058C34.6666 88.708 34.4826 88.6591 34.2705 88.6591C34.0368 88.6591 33.8347 88.7171 33.664 88.8331C33.4949 88.9474 33.3648 89.0966 33.2737 89.2805C33.1826 89.4645 33.137 89.6617 33.137 89.8722V90.2102C33.137 90.4986 33.1867 90.743 33.2861 90.9435C33.3872 91.1424 33.5273 91.294 33.7062 91.3984C33.8852 91.5012 34.0932 91.5526 34.3302 91.5526C34.4843 91.5526 34.6235 91.531 34.7478 91.4879C34.8737 91.4432 34.9823 91.3769 35.0734 91.2891C35.1646 91.1996 35.235 91.0885 35.2847 90.956L35.8515 91.1151C35.7918 91.3073 35.6916 91.4763 35.5507 91.6222C35.4098 91.7663 35.2358 91.879 35.0287 91.9602C34.8215 92.0398 34.5887 92.0795 34.3302 92.0795ZM39.4385 92V92.5469H36.2567V92H39.4385ZM40.0481 92V86.9091H40.6348V88.7884H40.6845C40.7276 88.7221 40.7872 88.6375 40.8635 88.5348C40.9413 88.4304 41.0524 88.3376 41.1966 88.2564C41.3424 88.1735 41.5396 88.1321 41.7882 88.1321C42.1097 88.1321 42.3931 88.2125 42.6383 88.3732C42.8836 88.534 43.075 88.7618 43.2125 89.0568C43.3501 89.3518 43.4189 89.6998 43.4189 90.1009C43.4189 90.5052 43.3501 90.8557 43.2125 91.1523C43.075 91.4473 42.8844 91.676 42.6408 91.8384C42.3972 91.9992 42.1163 92.0795 41.7981 92.0795C41.5529 92.0795 41.3565 92.0389 41.209 91.9577C41.0615 91.8749 40.948 91.7812 40.8684 91.6768C40.7889 91.5708 40.7276 91.483 40.6845 91.4134H40.6149V92H40.0481ZM40.6248 90.0909C40.6248 90.3793 40.6671 90.6336 40.7516 90.854C40.8361 91.0728 40.9596 91.2443 41.122 91.3686C41.2844 91.4912 41.4833 91.5526 41.7186 91.5526C41.9638 91.5526 42.1685 91.4879 42.3326 91.3587C42.4983 91.2277 42.6226 91.0521 42.7054 90.8317C42.79 90.6096 42.8322 90.3627 42.8322 90.0909C42.8322 89.8224 42.7908 89.5805 42.7079 89.3651C42.6267 89.148 42.5033 88.9764 42.3375 88.8505C42.1735 88.7229 41.9672 88.6591 41.7186 88.6591C41.4799 88.6591 41.2794 88.7196 41.117 88.8406C40.9546 88.9599 40.832 89.1272 40.7491 89.3427C40.6663 89.5565 40.6248 89.8059 40.6248 90.0909ZM46.7225 90.4389V88.1818H47.3091V92H46.7225V91.3537H46.6827C46.5932 91.5476 46.454 91.7125 46.2651 91.8484C46.0762 91.9826 45.8375 92.0497 45.5492 92.0497C45.3105 92.0497 45.0984 91.9975 44.9128 91.8931C44.7272 91.7871 44.5814 91.628 44.4753 91.4158C44.3693 91.2021 44.3162 90.9328 44.3162 90.608V88.1818H44.9029V90.5682C44.9029 90.8466 44.9808 91.0687 45.1365 91.2344C45.294 91.4001 45.4945 91.483 45.7381 91.483C45.8839 91.483 46.0323 91.4457 46.1831 91.3711C46.3355 91.2965 46.4631 91.1822 46.5659 91.0281C46.6703 90.8739 46.7225 90.6776 46.7225 90.4389ZM50.0839 88.1818V88.679H48.0257V88.1818H50.0839ZM48.6421 92V87.6548C48.6421 87.4361 48.6935 87.2538 48.7963 87.108C48.899 86.9621 49.0324 86.8527 49.1965 86.7798C49.3605 86.7069 49.5337 86.6705 49.716 86.6705C49.8602 86.6705 49.9778 86.6821 50.069 86.7053C50.1601 86.7285 50.2281 86.75 50.2728 86.7699L50.1038 87.277C50.074 87.267 50.0325 87.2546 49.9795 87.2397C49.9281 87.2248 49.8602 87.2173 49.7757 87.2173C49.5818 87.2173 49.4417 87.2662 49.3556 87.364C49.271 87.4618 49.2288 87.6051 49.2288 87.794V92H48.6421ZM52.6064 88.1818V88.679H50.5481V88.1818H52.6064ZM51.1646 92V87.6548C51.1646 87.4361 51.216 87.2538 51.3187 87.108C51.4215 86.9621 51.5549 86.8527 51.7189 86.7798C51.883 86.7069 52.0562 86.6705 52.2385 86.6705C52.3826 86.6705 52.5003 86.6821 52.5914 86.7053C52.6826 86.7285 52.7505 86.75 52.7953 86.7699L52.6262 87.277C52.5964 87.267 52.555 87.2546 52.502 87.2397C52.4506 87.2248 52.3826 87.2173 52.2981 87.2173C52.1042 87.2173 51.9642 87.2662 51.878 87.364C51.7935 87.4618 51.7512 87.6051 51.7512 87.794V92H51.1646ZM54.8722 92.0795C54.5043 92.0795 54.1869 91.9983 53.9201 91.8359C53.6549 91.6719 53.4503 91.4432 53.3061 91.1499C53.1636 90.8549 53.0923 90.5118 53.0923 90.1207C53.0923 89.7296 53.1636 89.3849 53.3061 89.0866C53.4503 88.7867 53.6508 88.553 53.9077 88.3857C54.1662 88.2166 54.4678 88.1321 54.8125 88.1321C55.0114 88.1321 55.2077 88.1652 55.4016 88.2315C55.5955 88.2978 55.772 88.4055 55.9311 88.5547C56.0902 88.7022 56.217 88.8977 56.3114 89.1413C56.4059 89.3849 56.4531 89.6849 56.4531 90.0412V90.2898H53.5099V89.7827H55.8565C55.8565 89.5672 55.8134 89.375 55.7273 89.206C55.6428 89.0369 55.5218 88.9035 55.3643 88.8058C55.2086 88.708 55.0246 88.6591 54.8125 88.6591C54.5788 88.6591 54.3767 88.7171 54.206 88.8331C54.0369 88.9474 53.9068 89.0966 53.8157 89.2805C53.7246 89.4645 53.679 89.6617 53.679 89.8722V90.2102C53.679 90.4986 53.7287 90.743 53.8281 90.9435C53.9292 91.1424 54.0692 91.294 54.2482 91.3984C54.4272 91.5012 54.6352 91.5526 54.8722 91.5526C55.0263 91.5526 55.1655 91.531 55.2898 91.4879C55.4157 91.4432 55.5243 91.3769 55.6154 91.2891C55.7066 91.1996 55.777 91.0885 55.8267 90.956L56.3935 91.1151C56.3338 91.3073 56.2335 91.4763 56.0927 91.6222C55.9518 91.7663 55.7778 91.879 55.5707 91.9602C55.3635 92.0398 55.1307 92.0795 54.8722 92.0795ZM57.3455 92V88.1818H57.9123V88.7585H57.9521C58.0217 88.5696 58.1476 88.4163 58.3299 88.2987C58.5122 88.181 58.7177 88.1222 58.9464 88.1222C58.9895 88.1222 59.0433 88.123 59.108 88.1246C59.1726 88.1263 59.2215 88.1288 59.2546 88.1321V88.7287C59.2347 88.7237 59.1892 88.7163 59.1179 88.7063C59.0483 88.6947 58.9746 88.6889 58.8967 88.6889C58.7111 88.6889 58.5453 88.7279 58.3995 88.8058C58.2553 88.882 58.141 88.988 58.0565 89.1239C57.9736 89.2582 57.9322 89.4115 57.9322 89.5838V92H57.3455Z" fill="black"/>
<rect x="5" y="109" width="72" height="28" fill="#2E2E2E"/>
<path d="M25.5369 125V121.182H26.1037V121.778H26.1534C26.233 121.575 26.3614 121.416 26.5387 121.304C26.716 121.189 26.929 121.132 27.1776 121.132C27.4295 121.132 27.6391 121.189 27.8065 121.304C27.9755 121.416 28.1072 121.575 28.2017 121.778H28.2415C28.3393 121.581 28.4859 121.425 28.6815 121.309C28.877 121.191 29.1115 121.132 29.3849 121.132C29.7263 121.132 30.0056 121.239 30.2227 121.453C30.4397 121.665 30.5483 121.996 30.5483 122.445V125H29.9616V122.445C29.9616 122.163 29.8846 121.962 29.7305 121.841C29.5763 121.72 29.3949 121.659 29.1861 121.659C28.9176 121.659 28.7096 121.74 28.5621 121.903C28.4147 122.063 28.3409 122.267 28.3409 122.514V125H27.7443V122.385C27.7443 122.168 27.6739 121.993 27.533 121.86C27.3922 121.726 27.2107 121.659 26.9886 121.659C26.8362 121.659 26.6937 121.7 26.5611 121.781C26.4302 121.862 26.3241 121.975 26.2429 122.119C26.1634 122.261 26.1236 122.426 26.1236 122.614V125H25.5369ZM34.3255 122.037L33.7985 122.186C33.7653 122.098 33.7164 122.013 33.6518 121.93C33.5888 121.846 33.5027 121.776 33.3933 121.721C33.2839 121.667 33.1439 121.639 32.9732 121.639C32.7395 121.639 32.5448 121.693 32.389 121.801C32.2349 121.907 32.1578 122.042 32.1578 122.206C32.1578 122.352 32.2109 122.467 32.3169 122.551C32.423 122.636 32.5887 122.706 32.8141 122.763L33.3809 122.902C33.7222 122.985 33.9766 123.112 34.144 123.282C34.3114 123.451 34.3951 123.669 34.3951 123.936C34.3951 124.155 34.3321 124.35 34.2061 124.523C34.0819 124.695 33.9078 124.831 33.6841 124.93C33.4604 125.03 33.2002 125.08 32.9036 125.08C32.5141 125.08 32.1918 124.995 31.9366 124.826C31.6814 124.657 31.5198 124.41 31.4519 124.085L32.0087 123.946C32.0617 124.152 32.162 124.306 32.3095 124.408C32.4586 124.511 32.6533 124.562 32.8936 124.562C33.1671 124.562 33.3842 124.504 33.5449 124.388C33.7073 124.271 33.7885 124.13 33.7885 123.966C33.7885 123.833 33.7421 123.722 33.6493 123.633C33.5565 123.542 33.414 123.474 33.2218 123.429L32.5854 123.28C32.2357 123.197 31.9789 123.069 31.8148 122.895C31.6524 122.719 31.5712 122.499 31.5712 122.236C31.5712 122.02 31.6317 121.83 31.7527 121.664C31.8753 121.498 32.0418 121.368 32.2523 121.274C32.4644 121.179 32.7047 121.132 32.9732 121.132C33.351 121.132 33.6477 121.215 33.8631 121.381C34.0802 121.546 34.2343 121.765 34.3255 122.037ZM36.8193 126.511C36.536 126.511 36.2923 126.475 36.0885 126.402C35.8847 126.331 35.7148 126.236 35.5789 126.119C35.4447 126.003 35.3378 125.878 35.2583 125.746L35.7256 125.418C35.7786 125.487 35.8457 125.567 35.9269 125.656C36.0081 125.747 36.1192 125.826 36.26 125.892C36.4026 125.96 36.589 125.994 36.8193 125.994C37.1276 125.994 37.382 125.92 37.5825 125.771C37.783 125.621 37.8833 125.388 37.8833 125.07V124.294H37.8335C37.7905 124.364 37.7291 124.45 37.6496 124.553C37.5717 124.654 37.459 124.744 37.3115 124.824C37.1657 124.901 36.9685 124.94 36.7199 124.94C36.4117 124.94 36.1349 124.867 35.8896 124.722C35.646 124.576 35.453 124.364 35.3105 124.085C35.1696 123.807 35.0992 123.469 35.0992 123.071C35.0992 122.68 35.1679 122.339 35.3055 122.049C35.443 121.758 35.6344 121.532 35.8797 121.373C36.125 121.212 36.4084 121.132 36.7298 121.132C36.9784 121.132 37.1756 121.174 37.3215 121.256C37.469 121.338 37.5816 121.43 37.6595 121.535C37.7391 121.638 37.8004 121.722 37.8435 121.788H37.9031V121.182H38.4699V125.109C38.4699 125.438 38.3953 125.704 38.2462 125.91C38.0987 126.117 37.8998 126.269 37.6496 126.365C37.401 126.462 37.1243 126.511 36.8193 126.511ZM36.7994 124.413C37.0348 124.413 37.2336 124.359 37.396 124.252C37.5584 124.144 37.6819 123.989 37.7664 123.787C37.8509 123.585 37.8932 123.343 37.8932 123.061C37.8932 122.786 37.8518 122.543 37.7689 122.333C37.6861 122.122 37.5634 121.957 37.401 121.838C37.2386 121.719 37.0381 121.659 36.7994 121.659C36.5509 121.659 36.3437 121.722 36.178 121.848C36.0139 121.974 35.8905 122.143 35.8076 122.355C35.7264 122.567 35.6858 122.803 35.6858 123.061C35.6858 123.326 35.7272 123.561 35.8101 123.765C35.8946 123.967 36.0189 124.126 36.183 124.242C36.3487 124.356 36.5542 124.413 36.7994 124.413ZM42.418 125V125.547H39.2362V125H42.418ZM43.2694 125V121.182H43.8361V121.778H43.8858C43.9654 121.575 44.0938 121.416 44.2711 121.304C44.4484 121.189 44.6614 121.132 44.91 121.132C45.1619 121.132 45.3715 121.189 45.5389 121.304C45.7079 121.416 45.8397 121.575 45.9341 121.778H45.9739C46.0717 121.581 46.2183 121.425 46.4139 121.309C46.6094 121.191 46.8439 121.132 47.1174 121.132C47.4587 121.132 47.738 121.239 47.9551 121.453C48.1722 121.665 48.2807 121.996 48.2807 122.445V125H47.6941V122.445C47.6941 122.163 47.617 121.962 47.4629 121.841C47.3088 121.72 47.1273 121.659 46.9185 121.659C46.65 121.659 46.4421 121.74 46.2946 121.903C46.1471 122.063 46.0733 122.267 46.0733 122.514V125H45.4767V122.385C45.4767 122.168 45.4063 121.993 45.2654 121.86C45.1246 121.726 44.9431 121.659 44.7211 121.659C44.5686 121.659 44.4261 121.7 44.2935 121.781C44.1626 121.862 44.0565 121.975 43.9753 122.119C43.8958 122.261 43.856 122.426 43.856 122.614V125H43.2694ZM52.0579 122.037L51.5309 122.186C51.4978 122.098 51.4489 122.013 51.3842 121.93C51.3213 121.846 51.2351 121.776 51.1257 121.721C51.0163 121.667 50.8763 121.639 50.7056 121.639C50.4719 121.639 50.2772 121.693 50.1214 121.801C49.9673 121.907 49.8903 122.042 49.8903 122.206C49.8903 122.352 49.9433 122.467 50.0494 122.551C50.1554 122.636 50.3211 122.706 50.5465 122.763L51.1133 122.902C51.4547 122.985 51.709 123.112 51.8764 123.282C52.0438 123.451 52.1275 123.669 52.1275 123.936C52.1275 124.155 52.0645 124.35 51.9386 124.523C51.8143 124.695 51.6403 124.831 51.4165 124.93C51.1928 125.03 50.9326 125.08 50.636 125.08C50.2466 125.08 49.9242 124.995 49.669 124.826C49.4138 124.657 49.2522 124.41 49.1843 124.085L49.7411 123.946C49.7942 124.152 49.8944 124.306 50.0419 124.408C50.1911 124.511 50.3858 124.562 50.6261 124.562C50.8995 124.562 51.1166 124.504 51.2773 124.388C51.4397 124.271 51.521 124.13 51.521 123.966C51.521 123.833 51.4746 123.722 51.3817 123.633C51.2889 123.542 51.1464 123.474 50.9542 123.429L50.3178 123.28C49.9682 123.197 49.7113 123.069 49.5472 122.895C49.3848 122.719 49.3036 122.499 49.3036 122.236C49.3036 122.02 49.3641 121.83 49.4851 121.664C49.6077 121.498 49.7743 121.368 49.9847 121.274C50.1969 121.179 50.4371 121.132 50.7056 121.132C51.0835 121.132 51.3801 121.215 51.5955 121.381C51.8126 121.546 51.9667 121.765 52.0579 122.037ZM54.5518 126.511C54.2684 126.511 54.0248 126.475 53.8209 126.402C53.6171 126.331 53.4472 126.236 53.3113 126.119C53.1771 126.003 53.0702 125.878 52.9907 125.746L53.458 125.418C53.511 125.487 53.5782 125.567 53.6594 125.656C53.7406 125.747 53.8516 125.826 53.9925 125.892C54.135 125.96 54.3214 125.994 54.5518 125.994C54.86 125.994 55.1144 125.92 55.3149 125.771C55.5154 125.621 55.6157 125.388 55.6157 125.07V124.294H55.566C55.5229 124.364 55.4616 124.45 55.382 124.553C55.3041 124.654 55.1914 124.744 55.0439 124.824C54.8981 124.901 54.7009 124.94 54.4523 124.94C54.1441 124.94 53.8673 124.867 53.6221 124.722C53.3785 124.576 53.1854 124.364 53.0429 124.085C52.902 123.807 52.8316 123.469 52.8316 123.071C52.8316 122.68 52.9004 122.339 53.0379 122.049C53.1755 121.758 53.3669 121.532 53.6121 121.373C53.8574 121.212 54.1408 121.132 54.4623 121.132C54.7108 121.132 54.9081 121.174 55.0539 121.256C55.2014 121.338 55.3141 121.43 55.392 121.535C55.4715 121.638 55.5328 121.722 55.5759 121.788H55.6356V121.182H56.2023V125.109C56.2023 125.438 56.1278 125.704 55.9786 125.91C55.8311 126.117 55.6323 126.269 55.382 126.365C55.1334 126.462 54.8567 126.511 54.5518 126.511ZM54.5319 124.413C54.7672 124.413 54.9661 124.359 55.1285 124.252C55.2909 124.144 55.4143 123.989 55.4988 123.787C55.5834 123.585 55.6256 123.343 55.6256 123.061C55.6256 122.786 55.5842 122.543 55.5013 122.333C55.4185 122.122 55.2958 121.957 55.1334 121.838C54.971 121.719 54.7705 121.659 54.5319 121.659C54.2833 121.659 54.0761 121.722 53.9104 121.848C53.7464 121.974 53.6229 122.143 53.54 122.355C53.4588 122.567 53.4182 122.803 53.4182 123.061C53.4182 123.326 53.4597 123.561 53.5425 123.765C53.627 123.967 53.7513 124.126 53.9154 124.242C54.0811 124.356 54.2866 124.413 54.5319 124.413Z" fill="#E8E8E8"/>
<rect x="5" y="143" width="72" height="28" fill="#DCD6D6"/>
<path d="M22.5369 161.432V156.182H23.1037V156.788H23.1733C23.2164 156.722 23.276 156.638 23.3523 156.535C23.4302 156.43 23.5412 156.338 23.6854 156.256C23.8312 156.174 24.0284 156.132 24.277 156.132C24.5985 156.132 24.8819 156.212 25.1271 156.373C25.3724 156.534 25.5638 156.762 25.7013 157.057C25.8389 157.352 25.9077 157.7 25.9077 158.101C25.9077 158.505 25.8389 158.856 25.7013 159.152C25.5638 159.447 25.3732 159.676 25.1296 159.838C24.886 159.999 24.6051 160.08 24.2869 160.08C24.0417 160.08 23.8453 160.039 23.6978 159.958C23.5503 159.875 23.4368 159.781 23.3572 159.677C23.2777 159.571 23.2164 159.483 23.1733 159.413H23.1236V161.432H22.5369ZM23.1136 158.091C23.1136 158.379 23.1559 158.634 23.2404 158.854C23.3249 159.073 23.4484 159.244 23.6108 159.369C23.7732 159.491 23.9721 159.553 24.2074 159.553C24.4527 159.553 24.6573 159.488 24.8214 159.359C24.9871 159.228 25.1114 159.052 25.1942 158.832C25.2788 158.61 25.321 158.363 25.321 158.091C25.321 157.822 25.2796 157.58 25.1967 157.365C25.1155 157.148 24.9921 156.976 24.8263 156.85C24.6623 156.723 24.456 156.659 24.2074 156.659C23.9688 156.659 23.7682 156.72 23.6058 156.841C23.4434 156.96 23.3208 157.127 23.2379 157.343C23.1551 157.556 23.1136 157.806 23.1136 158.091ZM26.8026 160V156.182H27.3892V160H26.8026ZM27.1009 155.545C26.9865 155.545 26.8879 155.507 26.805 155.429C26.7238 155.351 26.6832 155.257 26.6832 155.148C26.6832 155.038 26.7238 154.945 26.805 154.867C26.8879 154.789 26.9865 154.75 27.1009 154.75C27.2152 154.75 27.313 154.789 27.3942 154.867C27.477 154.945 27.5185 155.038 27.5185 155.148C27.5185 155.257 27.477 155.351 27.3942 155.429C27.313 155.507 27.2152 155.545 27.1009 155.545ZM28.4637 161.432V156.182H29.0305V156.788H29.1001C29.1431 156.722 29.2028 156.638 29.279 156.535C29.3569 156.43 29.468 156.338 29.6121 156.256C29.758 156.174 29.9552 156.132 30.2037 156.132C30.5252 156.132 30.8086 156.212 31.0539 156.373C31.2992 156.534 31.4906 156.762 31.6281 157.057C31.7657 157.352 31.8344 157.7 31.8344 158.101C31.8344 158.505 31.7657 158.856 31.6281 159.152C31.4906 159.447 31.3 159.676 31.0564 159.838C30.8128 159.999 30.5319 160.08 30.2137 160.08C29.9684 160.08 29.772 160.039 29.6246 159.958C29.4771 159.875 29.3635 159.781 29.284 159.677C29.2045 159.571 29.1431 159.483 29.1001 159.413H29.0503V161.432H28.4637ZM29.0404 158.091C29.0404 158.379 29.0827 158.634 29.1672 158.854C29.2517 159.073 29.3751 159.244 29.5376 159.369C29.7 159.491 29.8988 159.553 30.1341 159.553C30.3794 159.553 30.5841 159.488 30.7481 159.359C30.9139 159.228 31.0381 159.052 31.121 158.832C31.2055 158.61 31.2478 158.363 31.2478 158.091C31.2478 157.822 31.2064 157.58 31.1235 157.365C31.0423 157.148 30.9188 156.976 30.7531 156.85C30.589 156.723 30.3827 156.659 30.1341 156.659C29.8955 156.659 29.695 156.72 29.5326 156.841C29.3702 156.96 29.2475 157.127 29.1647 157.343C29.0818 157.556 29.0404 157.806 29.0404 158.091ZM34.3302 160.08C33.9623 160.08 33.6449 159.998 33.3781 159.836C33.113 159.672 32.9083 159.443 32.7641 159.15C32.6216 158.855 32.5503 158.512 32.5503 158.121C32.5503 157.73 32.6216 157.385 32.7641 157.087C32.9083 156.787 33.1088 156.553 33.3657 156.386C33.6242 156.217 33.9258 156.132 34.2705 156.132C34.4694 156.132 34.6657 156.165 34.8596 156.232C35.0535 156.298 35.23 156.406 35.3891 156.555C35.5482 156.702 35.675 156.898 35.7694 157.141C35.8639 157.385 35.9111 157.685 35.9111 158.041V158.29H32.968V157.783H35.3145C35.3145 157.567 35.2715 157.375 35.1853 157.206C35.1008 157.037 34.9798 156.904 34.8224 156.806C34.6666 156.708 34.4826 156.659 34.2705 156.659C34.0368 156.659 33.8347 156.717 33.664 156.833C33.4949 156.947 33.3648 157.097 33.2737 157.281C33.1826 157.464 33.137 157.662 33.137 157.872V158.21C33.137 158.499 33.1867 158.743 33.2861 158.944C33.3872 159.142 33.5273 159.294 33.7062 159.398C33.8852 159.501 34.0932 159.553 34.3302 159.553C34.4843 159.553 34.6235 159.531 34.7478 159.488C34.8737 159.443 34.9823 159.377 35.0734 159.289C35.1646 159.2 35.235 159.089 35.2847 158.956L35.8515 159.115C35.7918 159.307 35.6916 159.476 35.5507 159.622C35.4098 159.766 35.2358 159.879 35.0287 159.96C34.8215 160.04 34.5887 160.08 34.3302 160.08ZM39.4385 160V160.547H36.2567V160H39.4385ZM40.0481 160V154.909H40.6348V156.788H40.6845C40.7276 156.722 40.7872 156.638 40.8635 156.535C40.9413 156.43 41.0524 156.338 41.1966 156.256C41.3424 156.174 41.5396 156.132 41.7882 156.132C42.1097 156.132 42.3931 156.212 42.6383 156.373C42.8836 156.534 43.075 156.762 43.2125 157.057C43.3501 157.352 43.4189 157.7 43.4189 158.101C43.4189 158.505 43.3501 158.856 43.2125 159.152C43.075 159.447 42.8844 159.676 42.6408 159.838C42.3972 159.999 42.1163 160.08 41.7981 160.08C41.5529 160.08 41.3565 160.039 41.209 159.958C41.0615 159.875 40.948 159.781 40.8684 159.677C40.7889 159.571 40.7276 159.483 40.6845 159.413H40.6149V160H40.0481ZM40.6248 158.091C40.6248 158.379 40.6671 158.634 40.7516 158.854C40.8361 159.073 40.9596 159.244 41.122 159.369C41.2844 159.491 41.4833 159.553 41.7186 159.553C41.9638 159.553 42.1685 159.488 42.3326 159.359C42.4983 159.228 42.6226 159.052 42.7054 158.832C42.79 158.61 42.8322 158.363 42.8322 158.091C42.8322 157.822 42.7908 157.58 42.7079 157.365C42.6267 157.148 42.5033 156.976 42.3375 156.85C42.1735 156.723 41.9672 156.659 41.7186 156.659C41.4799 156.659 41.2794 156.72 41.117 156.841C40.9546 156.96 40.832 157.127 40.7491 157.343C40.6663 157.556 40.6248 157.806 40.6248 158.091ZM46.7225 158.439V156.182H47.3091V160H46.7225V159.354H46.6827C46.5932 159.548 46.454 159.712 46.2651 159.848C46.0762 159.983 45.8375 160.05 45.5492 160.05C45.3105 160.05 45.0984 159.998 44.9128 159.893C44.7272 159.787 44.5814 159.628 44.4753 159.416C44.3693 159.202 44.3162 158.933 44.3162 158.608V156.182H44.9029V158.568C44.9029 158.847 44.9808 159.069 45.1365 159.234C45.294 159.4 45.4945 159.483 45.7381 159.483C45.8839 159.483 46.0323 159.446 46.1831 159.371C46.3355 159.297 46.4631 159.182 46.5659 159.028C46.6703 158.874 46.7225 158.678 46.7225 158.439ZM50.0839 156.182V156.679H48.0257V156.182H50.0839ZM48.6421 160V155.655C48.6421 155.436 48.6935 155.254 48.7963 155.108C48.899 154.962 49.0324 154.853 49.1965 154.78C49.3605 154.707 49.5337 154.67 49.716 154.67C49.8602 154.67 49.9778 154.682 50.069 154.705C50.1601 154.728 50.2281 154.75 50.2728 154.77L50.1038 155.277C50.074 155.267 50.0325 155.255 49.9795 155.24C49.9281 155.225 49.8602 155.217 49.7757 155.217C49.5818 155.217 49.4417 155.266 49.3556 155.364C49.271 155.462 49.2288 155.605 49.2288 155.794V160H48.6421ZM52.6064 156.182V156.679H50.5481V156.182H52.6064ZM51.1646 160V155.655C51.1646 155.436 51.216 155.254 51.3187 155.108C51.4215 154.962 51.5549 154.853 51.7189 154.78C51.883 154.707 52.0562 154.67 52.2385 154.67C52.3826 154.67 52.5003 154.682 52.5914 154.705C52.6826 154.728 52.7505 154.75 52.7953 154.77L52.6262 155.277C52.5964 155.267 52.555 155.255 52.502 155.24C52.4506 155.225 52.3826 155.217 52.2981 155.217C52.1042 155.217 51.9642 155.266 51.878 155.364C51.7935 155.462 51.7512 155.605 51.7512 155.794V160H51.1646ZM54.8722 160.08C54.5043 160.08 54.1869 159.998 53.9201 159.836C53.6549 159.672 53.4503 159.443 53.3061 159.15C53.1636 158.855 53.0923 158.512 53.0923 158.121C53.0923 157.73 53.1636 157.385 53.3061 157.087C53.4503 156.787 53.6508 156.553 53.9077 156.386C54.1662 156.217 54.4678 156.132 54.8125 156.132C55.0114 156.132 55.2077 156.165 55.4016 156.232C55.5955 156.298 55.772 156.406 55.9311 156.555C56.0902 156.702 56.217 156.898 56.3114 157.141C56.4059 157.385 56.4531 157.685 56.4531 158.041V158.29H53.5099V157.783H55.8565C55.8565 157.567 55.8134 157.375 55.7273 157.206C55.6428 157.037 55.5218 156.904 55.3643 156.806C55.2086 156.708 55.0246 156.659 54.8125 156.659C54.5788 156.659 54.3767 156.717 54.206 156.833C54.0369 156.947 53.9068 157.097 53.8157 157.281C53.7246 157.464 53.679 157.662 53.679 157.872V158.21C53.679 158.499 53.7287 158.743 53.8281 158.944C53.9292 159.142 54.0692 159.294 54.2482 159.398C54.4272 159.501 54.6352 159.553 54.8722 159.553C55.0263 159.553 55.1655 159.531 55.2898 159.488C55.4157 159.443 55.5243 159.377 55.6154 159.289C55.7066 159.2 55.777 159.089 55.8267 158.956L56.3935 159.115C56.3338 159.307 56.2335 159.476 56.0927 159.622C55.9518 159.766 55.7778 159.879 55.5707 159.96C55.3635 160.04 55.1307 160.08 54.8722 160.08ZM57.3455 160V156.182H57.9123V156.759H57.9521C58.0217 156.57 58.1476 156.416 58.3299 156.299C58.5122 156.181 58.7177 156.122 58.9464 156.122C58.9895 156.122 59.0433 156.123 59.108 156.125C59.1726 156.126 59.2215 156.129 59.2546 156.132V156.729C59.2347 156.724 59.1892 156.716 59.1179 156.706C59.0483 156.695 58.9746 156.689 58.8967 156.689C58.7111 156.689 58.5453 156.728 58.3995 156.806C58.2553 156.882 58.141 156.988 58.0565 157.124C57.9736 157.258 57.9322 157.411 57.9322 157.584V160H57.3455Z" fill="black"/>
<path opacity="0.7" d="M5 143H77V146H5V143Z" fill="#2E2E2E"/>
<mask id="path-15-inside-1_236_35" fill="white">
<path d="M136.013 26H199.013V52H136.013V26Z"/>
</mask>
<path d="M136.013 26H199.013V52H136.013V26Z" fill="#C5C9C5"/>
<path d="M136.013 27H199.013V25H136.013V27ZM199.013 51H136.013V53H199.013V51Z" fill="black" mask="url(#path-15-inside-1_236_35)"/>
<path d="M156.44 41V37.3636H158.621V37.7543H156.881V38.983H158.457V39.3736H156.881V41H156.44ZM159.289 41V38.2727H159.694V38.6847H159.722C159.772 38.5497 159.862 38.4402 159.992 38.3562C160.122 38.2721 160.269 38.2301 160.432 38.2301C160.463 38.2301 160.502 38.2307 160.548 38.2319C160.594 38.2331 160.629 38.2348 160.652 38.2372V38.6634C160.638 38.6598 160.606 38.6545 160.555 38.6474C160.505 38.6391 160.452 38.6349 160.397 38.6349C160.264 38.6349 160.146 38.6628 160.042 38.7184C159.939 38.7728 159.857 38.8486 159.797 38.9457C159.737 39.0415 159.708 39.151 159.708 39.2741V41H159.289ZM162.21 41.0568C161.947 41.0568 161.72 40.9988 161.53 40.8828C161.34 40.7656 161.194 40.6023 161.091 40.3928C160.989 40.1821 160.938 39.937 160.938 39.6577C160.938 39.3783 160.989 39.1321 161.091 38.919C161.194 38.7048 161.337 38.5379 161.521 38.4183C161.705 38.2976 161.921 38.2372 162.167 38.2372C162.309 38.2372 162.449 38.2609 162.588 38.3082C162.726 38.3556 162.852 38.4325 162.966 38.5391C163.08 38.6444 163.17 38.7841 163.238 38.9581C163.305 39.1321 163.339 39.3464 163.339 39.6009V39.7784H161.237V39.4162H162.913C162.913 39.2623 162.882 39.125 162.82 39.0043C162.76 38.8835 162.674 38.7882 162.561 38.7184C162.45 38.6486 162.319 38.6136 162.167 38.6136C162 38.6136 161.856 38.6551 161.734 38.7379C161.613 38.8196 161.52 38.9261 161.455 39.0575C161.39 39.1889 161.357 39.3298 161.357 39.4801V39.7216C161.357 39.9276 161.393 40.1022 161.464 40.2454C161.536 40.3874 161.636 40.4957 161.764 40.5703C161.892 40.6437 162.04 40.6804 162.21 40.6804C162.32 40.6804 162.419 40.665 162.508 40.6342C162.598 40.6023 162.675 40.5549 162.741 40.4922C162.806 40.4283 162.856 40.349 162.891 40.2543L163.296 40.3679C163.254 40.5052 163.182 40.6259 163.081 40.7301C162.981 40.8331 162.857 40.9136 162.709 40.9716C162.561 41.0284 162.394 41.0568 162.21 41.0568ZM165.12 41.0568C164.857 41.0568 164.63 40.9988 164.44 40.8828C164.25 40.7656 164.104 40.6023 164.001 40.3928C163.899 40.1821 163.848 39.937 163.848 39.6577C163.848 39.3783 163.899 39.1321 164.001 38.919C164.104 38.7048 164.247 38.5379 164.431 38.4183C164.616 38.2976 164.831 38.2372 165.077 38.2372C165.219 38.2372 165.359 38.2609 165.498 38.3082C165.636 38.3556 165.763 38.4325 165.876 38.5391C165.99 38.6444 166.08 38.7841 166.148 38.9581C166.215 39.1321 166.249 39.3464 166.249 39.6009V39.7784H164.147V39.4162H165.823C165.823 39.2623 165.792 39.125 165.731 39.0043C165.67 38.8835 165.584 38.7882 165.471 38.7184C165.36 38.6486 165.229 38.6136 165.077 38.6136C164.91 38.6136 164.766 38.6551 164.644 38.7379C164.523 38.8196 164.43 38.9261 164.365 39.0575C164.3 39.1889 164.267 39.3298 164.267 39.4801V39.7216C164.267 39.9276 164.303 40.1022 164.374 40.2454C164.446 40.3874 164.546 40.4957 164.674 40.5703C164.802 40.6437 164.95 40.6804 165.12 40.6804C165.23 40.6804 165.329 40.665 165.418 40.6342C165.508 40.6023 165.586 40.5549 165.651 40.4922C165.716 40.4283 165.766 40.349 165.802 40.2543L166.206 40.3679C166.164 40.5052 166.092 40.6259 165.992 40.7301C165.891 40.8331 165.767 40.9136 165.619 40.9716C165.471 41.0284 165.304 41.0568 165.12 41.0568ZM168.35 41V37.3636H169.578C169.863 37.3636 170.097 37.4151 170.278 37.5181C170.46 37.6199 170.595 37.7578 170.683 37.9318C170.77 38.1058 170.814 38.3 170.814 38.5142C170.814 38.7285 170.77 38.9232 170.683 39.0984C170.596 39.2736 170.462 39.4132 170.281 39.5174C170.1 39.6204 169.868 39.6719 169.585 39.6719H168.705V39.2812H169.571C169.766 39.2812 169.923 39.2475 170.042 39.18C170.16 39.1126 170.246 39.0214 170.299 38.9066C170.354 38.7906 170.381 38.6598 170.381 38.5142C170.381 38.3686 170.354 38.2384 170.299 38.1236C170.246 38.0088 170.159 37.9188 170.04 37.8537C169.92 37.7874 169.762 37.7543 169.564 37.7543H168.79V41H168.35ZM172.269 41.0639C172.096 41.0639 171.939 41.0314 171.799 40.9663C171.658 40.9 171.546 40.8047 171.463 40.6804C171.38 40.5549 171.339 40.4034 171.339 40.2259C171.339 40.0696 171.369 39.9429 171.431 39.8459C171.493 39.7476 171.575 39.6707 171.678 39.6151C171.781 39.5594 171.894 39.518 172.019 39.4908C172.144 39.4624 172.27 39.4399 172.397 39.4233C172.563 39.402 172.697 39.386 172.8 39.3754C172.904 39.3635 172.98 39.344 173.027 39.3168C173.076 39.2895 173.1 39.2422 173.1 39.1747V39.1605C173.1 38.9853 173.052 38.8492 172.956 38.7521C172.862 38.6551 172.718 38.6065 172.525 38.6065C172.325 38.6065 172.168 38.6503 172.054 38.7379C171.941 38.8255 171.861 38.919 171.815 39.0185L171.417 38.8764C171.488 38.7107 171.583 38.5817 171.701 38.4893C171.82 38.3958 171.951 38.3307 172.092 38.294C172.234 38.2562 172.373 38.2372 172.511 38.2372C172.598 38.2372 172.699 38.2479 172.812 38.2692C172.927 38.2893 173.038 38.3313 173.144 38.3952C173.252 38.4592 173.342 38.5556 173.413 38.6847C173.484 38.8137 173.519 38.9865 173.519 39.2031V41H173.1V40.6307H173.079C173.05 40.6899 173.003 40.7532 172.937 40.8207C172.87 40.8881 172.782 40.9455 172.672 40.9929C172.562 41.0402 172.428 41.0639 172.269 41.0639ZM172.333 40.6875C172.499 40.6875 172.638 40.6549 172.752 40.5898C172.867 40.5247 172.953 40.4407 173.011 40.3377C173.07 40.2347 173.1 40.1264 173.1 40.0128V39.6293C173.082 39.6506 173.043 39.6701 172.983 39.6879C172.924 39.7044 172.855 39.7192 172.777 39.7322C172.7 39.7441 172.625 39.7547 172.551 39.7642C172.479 39.7725 172.421 39.7796 172.376 39.7855C172.267 39.7997 172.165 39.8228 172.07 39.8548C171.977 39.8855 171.901 39.9323 171.843 39.995C171.786 40.0566 171.758 40.1406 171.758 40.2472C171.758 40.3928 171.812 40.5028 171.919 40.5774C172.028 40.6508 172.166 40.6875 172.333 40.6875ZM175.385 42.0795C175.182 42.0795 175.008 42.0535 174.863 42.0014C174.717 41.9505 174.596 41.883 174.499 41.799C174.403 41.7161 174.327 41.6274 174.27 41.5327L174.604 41.2983C174.641 41.348 174.689 41.4048 174.747 41.4688C174.805 41.5339 174.885 41.5901 174.985 41.6374C175.087 41.686 175.22 41.7102 175.385 41.7102C175.605 41.7102 175.787 41.657 175.93 41.5504C176.073 41.4439 176.145 41.277 176.145 41.0497V40.4957H176.109C176.078 40.5455 176.035 40.607 175.978 40.6804C175.922 40.7526 175.842 40.8171 175.736 40.8739C175.632 40.9296 175.491 40.9574 175.314 40.9574C175.094 40.9574 174.896 40.9053 174.721 40.8011C174.547 40.697 174.409 40.5455 174.307 40.3466C174.206 40.1477 174.156 39.9062 174.156 39.6222C174.156 39.3428 174.205 39.0996 174.303 38.8924C174.402 38.6841 174.538 38.5231 174.714 38.4094C174.889 38.2946 175.091 38.2372 175.321 38.2372C175.498 38.2372 175.639 38.2668 175.743 38.326C175.849 38.384 175.929 38.4503 175.985 38.5249C176.042 38.5982 176.086 38.6586 176.116 38.706H176.159V38.2727H176.564V41.0781C176.564 41.3125 176.51 41.5031 176.404 41.6499C176.299 41.7978 176.157 41.9061 175.978 41.9748C175.8 42.0446 175.603 42.0795 175.385 42.0795ZM175.371 40.581C175.539 40.581 175.681 40.5425 175.797 40.4656C175.913 40.3886 176.001 40.2779 176.061 40.1335C176.122 39.9891 176.152 39.8163 176.152 39.6151C176.152 39.4186 176.122 39.2451 176.063 39.0948C176.004 38.9445 175.916 38.8267 175.8 38.7415C175.684 38.6562 175.541 38.6136 175.371 38.6136C175.193 38.6136 175.045 38.6586 174.927 38.7486C174.809 38.8385 174.721 38.9593 174.662 39.1108C174.604 39.2623 174.575 39.4304 174.575 39.6151C174.575 39.8045 174.605 39.9719 174.664 40.1175C174.724 40.262 174.813 40.3756 174.93 40.4585C175.049 40.5401 175.195 40.581 175.371 40.581ZM178.474 41.0568C178.211 41.0568 177.985 40.9988 177.794 40.8828C177.605 40.7656 177.459 40.6023 177.356 40.3928C177.254 40.1821 177.203 39.937 177.203 39.6577C177.203 39.3783 177.254 39.1321 177.356 38.919C177.459 38.7048 177.602 38.5379 177.785 38.4183C177.97 38.2976 178.185 38.2372 178.432 38.2372C178.574 38.2372 178.714 38.2609 178.852 38.3082C178.991 38.3556 179.117 38.4325 179.231 38.5391C179.344 38.6444 179.435 38.7841 179.502 38.9581C179.57 39.1321 179.604 39.3464 179.604 39.6009V39.7784H177.501V39.4162H179.177C179.177 39.2623 179.147 39.125 179.085 39.0043C179.025 38.8835 178.938 38.7882 178.826 38.7184C178.715 38.6486 178.583 38.6136 178.432 38.6136C178.265 38.6136 178.12 38.6551 177.998 38.7379C177.878 38.8196 177.785 38.9261 177.72 39.0575C177.655 39.1889 177.622 39.3298 177.622 39.4801V39.7216C177.622 39.9276 177.657 40.1022 177.729 40.2454C177.801 40.3874 177.901 40.4957 178.029 40.5703C178.156 40.6437 178.305 40.6804 178.474 40.6804C178.584 40.6804 178.684 40.665 178.773 40.6342C178.863 40.6023 178.94 40.5549 179.005 40.4922C179.07 40.4283 179.121 40.349 179.156 40.2543L179.561 40.3679C179.518 40.5052 179.447 40.6259 179.346 40.7301C179.245 40.8331 179.121 40.9136 178.973 40.9716C178.825 41.0284 178.659 41.0568 178.474 41.0568Z" fill="black"/>
<path d="M136.013 56H199.013V82H136.013V56Z" fill="#C5C9C5"/>
<line x1="135.5" y1="102" x2="135.5" y2="3" stroke="black"/>
<line x1="199.5" y1="102" x2="199.5" y2="3" stroke="black"/>
<path d="M133.476 38.8455C133.39 38.5829 133.108 38.4391 132.845 38.5245L128.566 39.9154C128.303 40.0007 128.159 40.2828 128.245 40.5454C128.33 40.8081 128.612 40.9518 128.875 40.8664L132.679 39.6301L133.915 43.4342C134.001 43.6968 134.283 43.8405 134.545 43.7552C134.808 43.6698 134.952 43.3877 134.866 43.1251L133.476 38.8455ZM79.4455 145.227L133.446 39.227L132.554 38.773L78.5545 144.773L79.4455 145.227Z" fill="black"/>
<path d="M162.966 68V64.3636H164.195C164.48 64.3636 164.713 64.4151 164.894 64.5181C165.077 64.6199 165.212 64.7578 165.299 64.9318C165.387 65.1058 165.431 65.3 165.431 65.5142C165.431 65.7285 165.387 65.9232 165.299 66.0984C165.213 66.2736 165.079 66.4132 164.898 66.5174C164.717 66.6204 164.485 66.6719 164.202 66.6719H163.321V66.2812H164.188C164.383 66.2812 164.54 66.2475 164.658 66.18C164.777 66.1126 164.863 66.0214 164.916 65.9066C164.97 65.7906 164.997 65.6598 164.997 65.5142C164.997 65.3686 164.97 65.2384 164.916 65.1236C164.863 65.0088 164.776 64.9188 164.657 64.8537C164.537 64.7874 164.378 64.7543 164.181 64.7543H163.407V68H162.966ZM166.886 68.0639C166.713 68.0639 166.556 68.0314 166.415 67.9663C166.274 67.9 166.163 67.8047 166.08 67.6804C165.997 67.5549 165.955 67.4034 165.955 67.2259C165.955 67.0696 165.986 66.9429 166.048 66.8459C166.109 66.7476 166.192 66.6707 166.295 66.6151C166.398 66.5594 166.511 66.518 166.635 66.4908C166.761 66.4624 166.887 66.4399 167.014 66.4233C167.179 66.402 167.314 66.386 167.417 66.3754C167.521 66.3635 167.597 66.344 167.644 66.3168C167.692 66.2895 167.717 66.2422 167.717 66.1747V66.1605C167.717 65.9853 167.669 65.8492 167.573 65.7521C167.478 65.6551 167.334 65.6065 167.141 65.6065C166.941 65.6065 166.785 65.6503 166.671 65.7379C166.557 65.8255 166.477 65.919 166.431 66.0185L166.034 65.8764C166.105 65.7107 166.199 65.5817 166.318 65.4893C166.437 65.3958 166.567 65.3307 166.708 65.294C166.85 65.2562 166.99 65.2372 167.127 65.2372C167.215 65.2372 167.315 65.2479 167.429 65.2692C167.544 65.2893 167.655 65.3313 167.761 65.3952C167.869 65.4592 167.958 65.5556 168.029 65.6847C168.1 65.8137 168.136 65.9865 168.136 66.2031V68H167.717V67.6307H167.695C167.667 67.6899 167.62 67.7532 167.553 67.8207C167.487 67.8881 167.399 67.9455 167.289 67.9929C167.179 68.0402 167.044 68.0639 166.886 68.0639ZM166.95 67.6875C167.115 67.6875 167.255 67.6549 167.369 67.5898C167.484 67.5247 167.57 67.4407 167.628 67.3377C167.687 67.2347 167.717 67.1264 167.717 67.0128V66.6293C167.699 66.6506 167.66 66.6701 167.6 66.6879C167.54 66.7044 167.472 66.7192 167.394 66.7322C167.317 66.7441 167.241 66.7547 167.168 66.7642C167.096 66.7725 167.037 66.7796 166.992 66.7855C166.883 66.7997 166.782 66.8228 166.687 66.8548C166.593 66.8855 166.518 66.9323 166.46 66.995C166.403 67.0566 166.374 67.1406 166.374 67.2472C166.374 67.3928 166.428 67.5028 166.536 67.5774C166.645 67.6508 166.783 67.6875 166.95 67.6875ZM170.001 69.0795C169.799 69.0795 169.625 69.0535 169.479 69.0014C169.334 68.9505 169.213 68.883 169.115 68.799C169.02 68.7161 168.943 68.6274 168.886 68.5327L169.22 68.2983C169.258 68.348 169.306 68.4048 169.364 68.4688C169.422 68.5339 169.501 68.5901 169.602 68.6374C169.704 68.686 169.837 68.7102 170.001 68.7102C170.222 68.7102 170.403 68.657 170.547 68.5504C170.69 68.4439 170.761 68.277 170.761 68.0497V67.4957H170.726C170.695 67.5455 170.651 67.607 170.595 67.6804C170.539 67.7526 170.458 67.8171 170.353 67.8739C170.249 67.9296 170.108 67.9574 169.93 67.9574C169.71 67.9574 169.513 67.9053 169.337 67.8011C169.163 67.697 169.025 67.5455 168.924 67.3466C168.823 67.1477 168.773 66.9062 168.773 66.6222C168.773 66.3428 168.822 66.0996 168.92 65.8924C169.018 65.6841 169.155 65.5231 169.33 65.4094C169.505 65.2946 169.708 65.2372 169.938 65.2372C170.115 65.2372 170.256 65.2668 170.36 65.326C170.465 65.384 170.546 65.4503 170.602 65.5249C170.658 65.5982 170.702 65.6586 170.733 65.706H170.776V65.2727H171.18V68.0781C171.18 68.3125 171.127 68.5031 171.021 68.6499C170.915 68.7978 170.773 68.9061 170.595 68.9748C170.417 69.0446 170.219 69.0795 170.001 69.0795ZM169.987 67.581C170.155 67.581 170.297 67.5425 170.413 67.4656C170.529 67.3886 170.618 67.2779 170.678 67.1335C170.738 66.9891 170.769 66.8163 170.769 66.6151C170.769 66.4186 170.739 66.2451 170.68 66.0948C170.621 65.9445 170.533 65.8267 170.417 65.7415C170.301 65.6562 170.158 65.6136 169.987 65.6136C169.81 65.6136 169.662 65.6586 169.543 65.7486C169.426 65.8385 169.338 65.9593 169.279 66.1108C169.221 66.2623 169.192 66.4304 169.192 66.6151C169.192 66.8045 169.221 66.9719 169.281 67.1175C169.341 67.262 169.43 67.3756 169.547 67.4585C169.665 67.5401 169.812 67.581 169.987 67.581ZM173.091 68.0568C172.828 68.0568 172.601 67.9988 172.411 67.8828C172.222 67.7656 172.075 67.6023 171.972 67.3928C171.871 67.1821 171.82 66.937 171.82 66.6577C171.82 66.3783 171.871 66.1321 171.972 65.919C172.075 65.7048 172.219 65.5379 172.402 65.4183C172.587 65.2976 172.802 65.2372 173.048 65.2372C173.19 65.2372 173.331 65.2609 173.469 65.3082C173.608 65.3556 173.734 65.4325 173.847 65.5391C173.961 65.6444 174.052 65.7841 174.119 65.9581C174.186 66.1321 174.22 66.3464 174.22 66.6009V66.7784H172.118V66.4162H173.794C173.794 66.2623 173.763 66.125 173.702 66.0043C173.641 65.8835 173.555 65.7882 173.443 65.7184C173.331 65.6486 173.2 65.6136 173.048 65.6136C172.881 65.6136 172.737 65.6551 172.615 65.7379C172.494 65.8196 172.401 65.9261 172.336 66.0575C172.271 66.1889 172.239 66.3298 172.239 66.4801V66.7216C172.239 66.9276 172.274 67.1022 172.345 67.2454C172.417 67.3874 172.517 67.4957 172.645 67.5703C172.773 67.6437 172.922 67.6804 173.091 67.6804C173.201 67.6804 173.3 67.665 173.389 67.6342C173.479 67.6023 173.557 67.5549 173.622 67.4922C173.687 67.4283 173.737 67.349 173.773 67.2543L174.178 67.3679C174.135 67.5052 174.063 67.6259 173.963 67.7301C173.862 67.8331 173.738 67.9136 173.59 67.9716C173.442 68.0284 173.276 68.0568 173.091 68.0568ZM156.857 72.1818C156.857 71.7344 156.915 71.323 157.031 70.9478C157.149 70.5714 157.315 70.2251 157.532 69.9091H157.901C157.816 70.0263 157.736 70.1707 157.662 70.3423C157.588 70.5128 157.524 70.7004 157.468 70.9052C157.413 71.1088 157.369 71.3195 157.337 71.5373C157.306 71.7551 157.291 71.9699 157.291 72.1818C157.291 72.4635 157.318 72.7494 157.372 73.0394C157.427 73.3294 157.5 73.5987 157.592 73.8473C157.685 74.0959 157.788 74.2983 157.901 74.4545H157.532C157.315 74.1385 157.149 73.7929 157.031 73.4176C156.915 73.0412 156.857 72.6293 156.857 72.1818ZM159.699 74H158.577V70.3636H159.748C160.101 70.3636 160.403 70.4364 160.654 70.582C160.905 70.7264 161.097 70.9342 161.231 71.2053C161.365 71.4751 161.432 71.7983 161.432 72.1747C161.432 72.5535 161.364 72.8796 161.229 73.1531C161.094 73.4253 160.898 73.6348 160.64 73.7816C160.382 73.9272 160.068 74 159.699 74ZM159.017 73.6094H159.67C159.971 73.6094 160.22 73.5514 160.418 73.4354C160.616 73.3194 160.763 73.1542 160.86 72.94C160.957 72.7257 161.006 72.4706 161.006 72.1747C161.006 71.8812 160.958 71.6284 160.862 71.4165C160.766 71.2035 160.623 71.0401 160.432 70.9265C160.241 70.8117 160.004 70.7543 159.72 70.7543H159.017V73.6094ZM162.916 74.0639C162.743 74.0639 162.586 74.0314 162.446 73.9663C162.305 73.9 162.193 73.8047 162.11 73.6804C162.027 73.5549 161.986 73.4034 161.986 73.2259C161.986 73.0696 162.016 72.9429 162.078 72.8459C162.14 72.7476 162.222 72.6707 162.325 72.6151C162.428 72.5594 162.541 72.518 162.666 72.4908C162.791 72.4624 162.917 72.4399 163.044 72.4233C163.21 72.402 163.344 72.386 163.447 72.3754C163.551 72.3635 163.627 72.344 163.674 72.3168C163.723 72.2895 163.747 72.2422 163.747 72.1747V72.1605C163.747 71.9853 163.699 71.8492 163.603 71.7521C163.509 71.6551 163.365 71.6065 163.172 71.6065C162.972 71.6065 162.815 71.6503 162.701 71.7379C162.588 71.8255 162.508 71.919 162.462 72.0185L162.064 71.8764C162.135 71.7107 162.23 71.5817 162.348 71.4893C162.467 71.3958 162.598 71.3307 162.739 71.294C162.881 71.2562 163.02 71.2372 163.158 71.2372C163.245 71.2372 163.346 71.2479 163.459 71.2692C163.574 71.2893 163.685 71.3313 163.791 71.3952C163.899 71.4592 163.989 71.5556 164.06 71.6847C164.131 71.8137 164.166 71.9865 164.166 72.2031V74H163.747V73.6307H163.726C163.697 73.6899 163.65 73.7532 163.584 73.8207C163.517 73.8881 163.429 73.9455 163.319 73.9929C163.209 74.0402 163.075 74.0639 162.916 74.0639ZM162.98 73.6875C163.146 73.6875 163.285 73.6549 163.399 73.5898C163.514 73.5247 163.6 73.4407 163.658 73.3377C163.717 73.2347 163.747 73.1264 163.747 73.0128V72.6293C163.729 72.6506 163.69 72.6701 163.63 72.6879C163.571 72.7044 163.502 72.7192 163.424 72.7322C163.347 72.7441 163.272 72.7547 163.198 72.7642C163.126 72.7725 163.068 72.7796 163.023 72.7855C162.914 72.7997 162.812 72.8228 162.717 72.8548C162.624 72.8855 162.548 72.9323 162.49 72.995C162.433 73.0566 162.405 73.1406 162.405 73.2472C162.405 73.3928 162.459 73.5028 162.566 73.5774C162.675 73.6508 162.813 73.6875 162.98 73.6875ZM165.35 72.3594V74H164.931V71.2727H165.336V71.6989H165.371C165.435 71.5604 165.532 71.4491 165.662 71.3651C165.793 71.2798 165.961 71.2372 166.167 71.2372C166.351 71.2372 166.513 71.2751 166.651 71.3509C166.79 71.4254 166.898 71.5391 166.975 71.6918C167.052 71.8433 167.09 72.035 167.09 72.267V74H166.671V72.2955C166.671 72.0812 166.615 71.9143 166.504 71.7947C166.393 71.674 166.24 71.6136 166.046 71.6136C165.912 71.6136 165.793 71.6426 165.687 71.7006C165.583 71.7586 165.501 71.8433 165.44 71.9545C165.38 72.0658 165.35 72.2008 165.35 72.3594ZM168.957 75.0795C168.754 75.0795 168.58 75.0535 168.435 75.0014C168.289 74.9505 168.168 74.883 168.071 74.799C167.975 74.7161 167.898 74.6274 167.841 74.5327L168.175 74.2983C168.213 74.348 168.261 74.4048 168.319 74.4688C168.377 74.5339 168.456 74.5901 168.557 74.6374C168.659 74.686 168.792 74.7102 168.957 74.7102C169.177 74.7102 169.358 74.657 169.502 74.5504C169.645 74.4439 169.716 74.277 169.716 74.0497V73.4957H169.681C169.65 73.5455 169.606 73.607 169.55 73.6804C169.494 73.7526 169.413 73.8171 169.308 73.8739C169.204 73.9296 169.063 73.9574 168.886 73.9574C168.665 73.9574 168.468 73.9053 168.292 73.8011C168.118 73.697 167.981 73.5455 167.879 73.3466C167.778 73.1477 167.728 72.9062 167.728 72.6222C167.728 72.3428 167.777 72.0996 167.875 71.8924C167.973 71.6841 168.11 71.5231 168.285 71.4094C168.461 71.2946 168.663 71.2372 168.893 71.2372C169.07 71.2372 169.211 71.2668 169.315 71.326C169.421 71.384 169.501 71.4503 169.557 71.5249C169.614 71.5982 169.657 71.6586 169.688 71.706H169.731V71.2727H170.136V74.0781C170.136 74.3125 170.082 74.5031 169.976 74.6499C169.87 74.7978 169.728 74.9061 169.55 74.9748C169.372 75.0446 169.174 75.0795 168.957 75.0795ZM168.942 73.581C169.11 73.581 169.252 73.5425 169.368 73.4656C169.484 73.3886 169.573 73.2779 169.633 73.1335C169.693 72.9891 169.724 72.8163 169.724 72.6151C169.724 72.4186 169.694 72.2451 169.635 72.0948C169.576 71.9445 169.488 71.8267 169.372 71.7415C169.256 71.6562 169.113 71.6136 168.942 71.6136C168.765 71.6136 168.617 71.6586 168.498 71.7486C168.381 71.8385 168.293 71.9593 168.234 72.1108C168.176 72.2623 168.147 72.4304 168.147 72.6151C168.147 72.8045 168.176 72.9719 168.236 73.1175C168.296 73.262 168.385 73.3756 168.502 73.4585C168.62 73.5401 168.767 73.581 168.942 73.581ZM171.322 70.3636V74H170.903V70.3636H171.322ZM172.089 74V71.2727H172.508V74H172.089ZM172.302 70.8182C172.22 70.8182 172.15 70.7904 172.091 70.7347C172.033 70.6791 172.004 70.6122 172.004 70.5341C172.004 70.456 172.033 70.3891 172.091 70.3335C172.15 70.2778 172.22 70.25 172.302 70.25C172.384 70.25 172.454 70.2778 172.512 70.3335C172.571 70.3891 172.6 70.456 172.6 70.5341C172.6 70.6122 172.571 70.6791 172.512 70.7347C172.454 70.7904 172.384 70.8182 172.302 70.8182ZM173.695 72.3594V74H173.276V71.2727H173.68V71.6989H173.716C173.78 71.5604 173.877 71.4491 174.007 71.3651C174.137 71.2798 174.305 71.2372 174.511 71.2372C174.696 71.2372 174.858 71.2751 174.996 71.3509C175.135 71.4254 175.242 71.5391 175.319 71.6918C175.396 71.8433 175.435 72.035 175.435 72.267V74H175.016V72.2955C175.016 72.0812 174.96 71.9143 174.849 71.7947C174.737 71.674 174.585 71.6136 174.391 71.6136C174.257 71.6136 174.137 71.6426 174.032 71.7006C173.928 71.7586 173.846 71.8433 173.785 71.9545C173.725 72.0658 173.695 72.2008 173.695 72.3594ZM177.301 75.0795C177.099 75.0795 176.925 75.0535 176.779 75.0014C176.634 74.9505 176.512 74.883 176.415 74.799C176.319 74.7161 176.243 74.6274 176.186 74.5327L176.52 74.2983C176.558 74.348 176.606 74.4048 176.664 74.4688C176.722 74.5339 176.801 74.5901 176.902 74.6374C177.004 74.686 177.137 74.7102 177.301 74.7102C177.521 74.7102 177.703 74.657 177.846 74.5504C177.99 74.4439 178.061 74.277 178.061 74.0497V73.4957H178.026C177.995 73.5455 177.951 73.607 177.894 73.6804C177.839 73.7526 177.758 73.8171 177.653 73.8739C177.549 73.9296 177.408 73.9574 177.23 73.9574C177.01 73.9574 176.812 73.9053 176.637 73.8011C176.463 73.697 176.325 73.5455 176.223 73.3466C176.123 73.1477 176.073 72.9062 176.073 72.6222C176.073 72.3428 176.122 72.0996 176.22 71.8924C176.318 71.6841 176.455 71.5231 176.63 71.4094C176.805 71.2946 177.008 71.2372 177.237 71.2372C177.415 71.2372 177.556 71.2668 177.66 71.326C177.765 71.384 177.846 71.4503 177.901 71.5249C177.958 71.5982 178.002 71.6586 178.033 71.706H178.075V71.2727H178.48V74.0781C178.48 74.3125 178.427 74.5031 178.32 74.6499C178.215 74.7978 178.073 74.9061 177.894 74.9748C177.717 75.0446 177.519 75.0795 177.301 75.0795ZM177.287 73.581C177.455 73.581 177.597 73.5425 177.713 73.4656C177.829 73.3886 177.917 73.2779 177.978 73.1335C178.038 72.9891 178.068 72.8163 178.068 72.6151C178.068 72.4186 178.039 72.2451 177.98 72.0948C177.92 71.9445 177.833 71.8267 177.717 71.7415C177.601 71.6562 177.458 71.6136 177.287 71.6136C177.11 71.6136 176.962 71.6586 176.843 71.7486C176.726 71.8385 176.638 71.9593 176.579 72.1108C176.521 72.2623 176.492 72.4304 176.492 72.6151C176.492 72.8045 176.521 72.9719 176.58 73.1175C176.641 73.262 176.73 73.3756 176.847 73.4585C176.965 73.5401 177.112 73.581 177.287 73.581ZM180.142 72.4659C180.142 72.9134 180.084 73.3253 179.966 73.7017C179.85 74.0769 179.684 74.4226 179.467 74.7386H179.098C179.183 74.6214 179.263 74.477 179.336 74.3054C179.411 74.1349 179.476 73.9479 179.531 73.7443C179.587 73.5395 179.63 73.3282 179.661 73.1104C179.693 72.8915 179.709 72.6766 179.709 72.4659C179.709 72.1842 179.682 71.8983 179.627 71.6083C179.573 71.3183 179.499 71.049 179.407 70.8004C179.315 70.5518 179.212 70.3494 179.098 70.1932H179.467C179.684 70.5092 179.85 70.8555 179.966 71.2319C180.084 71.6071 180.142 72.0185 180.142 72.4659Z" fill="black"/>
<line x1="77.1756" y1="9.53184" x2="133.176" y2="30.5318" stroke="black" stroke-dasharray="2 2"/>
</svg>
